<?xml version="1.0" standalone="no"?>
<!DOCTYPE svg PUBLIC "-//W3C//DTD SVG 20010904//EN"
 "http://www.w3.org/TR/2001/REC-SVG-20010904/DTD/svg10.dtd">
<svg version="1.0" xmlns="http://www.w3.org/2000/svg"
 width="586.000000pt" height="594.000000pt" viewBox="0 0 586.000000 594.000000"
 preserveAspectRatio="xMidYMid meet">
<metadata>
Created by potrace 1.16, written by Peter Selinger 2001-2019
</metadata>
<g transform="translate(0.000000,594.000000) scale(0.100000,-0.100000)"
fill="#000000" stroke="none">
<path d="M3657 5896 c-20 -12 -40 -26 -44 -30 -11 -11 44 11 69 28 13 8 34 13
48 11 72 -13 90 -18 90 -28 0 -6 3 -8 6 -4 4 3 13 -1 22 -9 13 -14 13 -17 -3
-32 -16 -16 -17 -16 -10 6 6 22 5 22 -15 10 -18 -10 -24 -10 -27 0 -9 25 -139
9 -148 -18 -3 -9 -17 -22 -31 -29 -36 -16 -114 -81 -114 -94 0 -6 15 3 33 20
17 17 52 42 77 56 25 13 64 35 87 48 42 24 42 24 57 4 15 -20 12 -59 -7 -83
-7 -9 -6 -11 6 -6 12 4 16 0 15 -18 -1 -12 -6 -29 -12 -37 -8 -10 -8 -15 2
-18 7 -3 12 -21 12 -44 0 -24 -5 -39 -12 -39 -10 0 -10 -2 -1 -8 9 -6 12 -46
12 -148 -1 -76 -1 -155 -1 -174 1 -49 -20 -79 -52 -73 -31 6 -34 -11 -9 -39
35 -39 13 -91 -40 -94 -15 -1 -13 4 10 29 l28 31 -29 -22 c-22 -17 -32 -20
-43 -11 -7 7 -16 9 -19 6 -8 -7 37 -47 53 -47 8 0 11 -5 8 -10 -4 -6 1 -22 10
-36 15 -24 18 -24 34 -10 23 21 59 20 63 -1 3 -14 10 -9 27 19 12 20 33 44 47
52 33 23 30 37 -8 35 -32 -3 -78 15 -78 28 0 4 10 17 22 30 28 30 32 60 14 88
-19 28 -30 241 -14 252 7 4 8 1 3 -8 -5 -8 -4 -10 0 -6 14 12 15 39 2 34 -8
-3 -12 6 -11 27 1 17 2 33 3 36 3 6 7 24 14 62 3 14 11 37 18 50 7 12 12 28
11 34 -3 17 34 45 51 38 10 -3 14 -10 11 -15 -3 -5 3 -6 12 -2 14 5 16 2 12
-15 -4 -14 -2 -22 6 -22 18 0 52 -40 67 -75 20 -51 28 -95 17 -95 -6 0 -5 -6
2 -15 8 -9 13 -45 13 -93 0 -224 -31 -378 -88 -439 -14 -15 -25 -33 -25 -40 0
-15 -69 -58 -95 -59 -11 0 -37 -4 -58 -8 -70 -15 -177 32 -177 78 0 9 -7 16
-15 16 -8 0 -21 12 -29 28 -13 23 -15 24 -15 7 -1 -25 9 -40 32 -48 10 -4 15
-11 12 -17 -7 -11 18 -40 34 -40 6 0 11 -4 11 -10 0 -5 7 -10 15 -10 8 0 15
-4 15 -10 0 -5 6 -10 14 -10 17 0 29 -27 15 -35 -21 -14 -89 26 -89 52 0 7 -5
13 -11 13 -13 0 -69 51 -69 63 0 5 -8 21 -19 35 -10 15 -22 47 -25 72 -4 25
-14 65 -22 90 -21 66 -41 234 -38 334 2 119 -17 97 -22 -25 -3 -52 -5 -102 -5
-113 0 -15 -6 -17 -35 -14 -18 2 -34 0 -34 -4 0 -4 15 -8 34 -8 28 0 35 -4 40
-26 8 -29 -1 -64 -15 -64 -5 0 -9 4 -9 8 0 5 -14 9 -31 10 -17 0 -33 3 -36 6
-3 3 -15 1 -26 -5 -11 -6 -17 -7 -13 -1 8 13 -129 22 -366 24 -171 1 -198 3
-204 17 -16 37 -14 38 44 43 6 1 12 7 12 14 0 10 -6 11 -26 4 -39 -15 -53 -10
-19 6 29 14 29 15 3 9 -16 -3 -28 0 -32 8 -3 6 -4 3 -3 -7 1 -10 -4 -21 -11
-23 -8 -3 -10 1 -5 13 4 10 2 15 -3 11 -6 -3 -16 -2 -24 3 -13 8 -13 13 -2 31
15 24 6 41 -9 19 -8 -11 -12 -12 -16 -2 -2 6 -11 12 -18 12 -7 0 -16 11 -19
24 -3 14 -15 28 -27 31 -14 5 -18 10 -11 17 6 6 16 6 29 -1 15 -8 20 -7 20 5
0 7 -6 14 -14 14 -7 0 -13 5 -13 10 0 6 -8 10 -17 10 -16 0 -16 -2 -3 -11 12
-8 11 -9 -5 -7 -15 3 -31 -13 -65 -62 -91 -131 -129 -177 -144 -177 -17 0 -22
22 -7 31 5 4 8 18 6 32 -1 15 3 28 11 31 15 5 9 23 -7 23 -6 0 -8 -4 -4 -9 3
-5 1 -12 -5 -16 -5 -3 -10 -1 -10 4 0 6 -4 11 -9 11 -6 0 -9 -9 -8 -19 1 -12
6 -17 17 -13 11 4 10 0 -4 -17 -20 -22 -20 -22 0 -15 17 7 17 6 5 -9 -7 -9
-17 -17 -21 -17 -13 0 -8 89 6 101 8 6 14 8 14 4 0 -11 55 36 55 48 1 7 7 11
14 9 18 -4 42 18 34 31 -4 6 0 8 11 4 10 -4 15 -3 11 3 -3 6 1 10 9 10 8 0 17
4 21 9 3 6 -14 8 -41 5 -39 -4 -45 -2 -36 9 7 8 10 16 7 19 -3 3 2 11 12 19
11 9 14 10 9 2 -9 -16 -1 -16 27 -1 33 18 82 28 149 31 21 1 38 4 38 7 0 6 36
10 117 13 22 1 39 5 37 9 -3 4 8 5 24 2 16 -3 39 -1 50 5 12 6 23 7 26 3 3 -5
21 -7 41 -6 20 2 33 0 31 -5 -3 -4 1 -8 9 -8 8 0 12 3 10 7 -2 3 5 12 17 19
11 7 17 8 13 2 -6 -11 41 -16 137 -14 26 0 45 -3 42 -8 -7 -11 -1 -11 30 1 14
5 26 6 26 2 0 -13 97 -7 114 7 13 11 16 11 16 -3 0 -9 5 -16 10 -16 6 0 10 14
10 31 0 23 5 32 22 37 21 5 21 6 2 13 -32 13 -71 10 -84 -6 -10 -13 -9 -15 10
-15 13 0 20 -5 18 -12 -7 -19 -41 -15 -44 4 -1 10 2 20 7 24 23 14 3 21 -62
23 -56 2 -69 -1 -64 -11 3 -7 1 -6 -7 3 -9 11 -34 16 -85 17 -66 2 -73 0 -73
-17 0 -22 -26 -36 -36 -19 -4 6 1 17 11 24 15 11 14 13 -15 12 -17 -1 -27 -4
-21 -7 12 -8 -6 -31 -37 -49 -20 -11 -22 -10 -22 9 0 12 8 27 17 34 15 11 13
13 -17 10 -27 -2 -36 -8 -40 -25 -3 -13 -11 -25 -18 -28 -16 -5 -16 30 1 47
10 10 9 11 -3 7 -8 -4 -44 -8 -80 -11 -79 -5 -136 -12 -172 -19 -61 -13 -85
-17 -128 -20 -25 -2 -57 -9 -72 -15 -26 -10 -28 -9 -28 14 0 14 -6 25 -13 25
-8 0 -22 9 -33 21 -78 86 -247 80 -321 -11 -13 -16 -26 -35 -29 -44 -11 -27
10 -17 36 18 34 46 76 73 129 81 39 6 43 5 38 -10 -4 -9 -7 -20 -7 -25 0 -4
-15 -11 -32 -14 -18 -4 -46 -18 -63 -32 l-30 -26 43 22 c45 22 101 21 144 -1
24 -13 58 -64 64 -95 7 -38 -22 -103 -60 -136 -30 -26 -33 -33 -35 -92 -2 -64
-2 -65 35 -90 l37 -25 -29 -13 c-16 -7 -32 -16 -35 -21 -3 -4 -5 -50 -5 -100
l1 -92 57 1 c86 2 156 40 198 110 41 68 47 127 13 132 -13 2 -23 7 -23 12 0
15 65 95 77 95 7 0 30 -25 52 -56 40 -56 40 -57 18 -63 -15 -3 -31 -24 -50
-65 -34 -75 -125 -175 -186 -206 -25 -12 -71 -27 -101 -33 -60 -11 -159 -13
-175 -4 -5 3 -20 7 -33 8 -13 2 -47 19 -76 38 -28 20 -56 36 -62 36 -7 0 -19
10 -27 23 -9 12 -27 35 -41 51 -14 16 -26 35 -26 43 0 7 -4 13 -10 13 -13 0
-13 -3 2 -35 6 -14 15 -25 21 -25 5 0 6 -7 3 -16 -3 -8 -2 -12 4 -9 6 3 10 1
10 -4 0 -6 19 -30 42 -54 24 -24 52 -54 63 -67 l20 -23 -22 12 c-13 6 -23 8
-23 4 -1 -4 -8 3 -16 17 -8 14 -13 17 -10 8 3 -10 2 -18 -3 -18 -20 0 -62 45
-101 110 -30 50 -46 67 -51 58 -6 -9 -9 -9 -9 -1 0 6 4 14 10 18 5 3 7 12 3
21 -8 20 28 59 38 42 5 -8 7 -1 6 16 -2 23 -9 32 -34 40 -28 10 -30 14 -21 31
9 17 6 16 -18 -5 -29 -25 -69 -50 -79 -50 -3 0 31 54 75 120 44 66 84 120 89
120 12 0 -9 -92 -25 -111 -23 -26 -16 -34 9 -11 l23 22 21 -24 c12 -14 29 -36
39 -51 17 -25 16 -26 -5 -32 -20 -5 -22 -10 -15 -47 8 -52 14 -62 26 -45 7 10
8 9 4 -5 -8 -24 10 -46 32 -39 15 4 15 3 2 -6 -13 -10 -11 -14 10 -32 42 -34
123 -69 163 -69 36 0 48 12 27 25 -6 4 -8 16 -4 28 6 19 5 20 -8 9 -13 -10
-17 -10 -21 2 -4 9 -2 18 4 22 6 4 6 11 -2 20 -15 18 -3 64 16 64 9 0 16 -10
16 -22 1 -19 2 -19 6 -5 3 10 2 30 -1 43 l-7 25 -25 -20 c-14 -11 -32 -17 -40
-14 -25 9 -15 41 23 72 46 38 35 40 -24 6 -51 -30 -60 -14 -13 25 20 17 32 37
36 65 7 48 11 55 28 55 8 0 16 8 18 18 4 13 -6 24 -33 39 -30 17 -39 18 -39 7
0 -8 8 -14 18 -14 21 0 27 -39 7 -46 -17 -7 -64 26 -65 44 0 6 -4 12 -9 12
-10 0 -31 48 -34 78 -1 12 -5 22 -10 22 -4 0 -5 6 0 13 4 6 9 23 10 37 l3 25
-15 -27 c-10 -17 -46 -42 -109 -73 -105 -52 -260 -151 -291 -185 -24 -27 -16
-23 85 46 41 28 97 63 123 79 l48 28 -47 -69 c-26 -38 -61 -81 -78 -96 -17
-15 -25 -28 -18 -28 7 0 10 -5 6 -11 -4 -8 -9 -7 -14 2 -6 9 -22 2 -62 -29
-59 -45 -106 -92 -93 -92 5 0 -2 -11 -15 -24 -12 -14 -20 -31 -17 -38 6 -16
-29 -62 -41 -54 -4 2 -8 -4 -8 -15 0 -12 4 -15 10 -9 17 17 29 11 15 -7 -8
-10 6 0 31 21 25 22 47 44 49 49 2 4 14 12 27 17 13 6 28 20 33 33 7 17 16 23
33 21 12 -1 31 -3 41 -3 17 -1 25 -31 8 -31 -4 0 -31 -22 -60 -49 l-51 -48 18
-44 c20 -47 47 -60 79 -39 11 7 12 10 3 7 -8 -2 -26 0 -39 4 -18 7 -22 15 -18
34 2 14 0 28 -4 31 -5 3 10 23 33 45 29 26 44 35 49 27 9 -14 -21 -39 -36 -30
-5 3 -4 -1 3 -10 10 -13 10 -17 0 -21 -9 -4 -8 -6 3 -6 8 -1 21 5 28 12 10 10
11 9 6 -5 -10 -26 6 -22 39 9 27 25 29 25 42 8 14 -19 9 -39 -7 -29 -6 3 -8
12 -5 20 4 11 -1 10 -19 -3 -13 -10 -25 -22 -25 -27 0 -5 7 -3 15 4 18 15 36
5 29 -18 -5 -14 -3 -14 10 2 9 11 19 16 23 13 11 -12 -53 -67 -81 -69 -14 -1
-26 -6 -26 -10 0 -12 48 -10 55 2 3 6 11 10 16 10 6 0 -4 -20 -21 -44 -17 -24
-32 -50 -34 -59 -1 -8 -8 -23 -16 -33 -14 -18 -13 -18 8 0 12 11 22 25 22 33
0 8 4 12 9 9 4 -3 21 10 36 29 16 18 32 32 36 29 4 -2 16 4 26 15 18 19 19 19
41 1 l22 -19 -51 -43 c-91 -76 -188 -171 -271 -265 -45 -51 -85 -90 -89 -87
-5 2 -15 -9 -24 -26 -18 -35 -23 -36 -41 -12 -13 17 -20 61 -8 49 4 -4 20 14
35 38 16 25 32 45 36 45 5 0 21 16 37 36 21 26 25 39 17 47 -8 8 -11 8 -11 -1
0 -6 -32 -47 -71 -91 l-71 -80 -37 29 c-20 15 -57 38 -83 50 -27 12 -45 26
-42 31 3 5 10 7 15 3 5 -3 8 -2 7 3 -2 4 0 8 4 8 3 0 16 12 28 28 12 15 26 25
31 22 5 -4 6 2 2 12 -6 17 -5 17 15 -1 19 -17 22 -17 22 -3 0 10 -4 17 -10 17
-17 0 -11 18 15 46 l25 27 0 -26 c0 -14 -4 -28 -9 -32 -6 -3 -8 -15 -6 -27 3
-12 1 -26 -4 -32 -5 -6 -5 -20 -1 -30 5 -14 9 -16 14 -7 5 7 6 14 3 17 -2 3 2
33 9 67 11 51 11 64 0 75 -11 11 -23 4 -71 -45 -31 -32 -68 -73 -82 -90 -20
-26 -33 -33 -60 -33 l-34 0 28 37 c24 31 25 36 8 29 -17 -6 -16 -4 5 21 41 46
43 49 35 35 -6 -11 -3 -12 14 -3 24 13 28 23 6 15 -8 -4 -15 -1 -15 6 0 6 -6
8 -12 4 -8 -4 -10 -3 -5 2 5 5 12 9 15 9 15 1 129 131 129 148 0 20 -5 16 -21
-14 -16 -32 -43 -46 -57 -32 -9 9 -5 18 17 38 32 30 43 60 15 46 -26 -14 -124
-128 -199 -231 -68 -94 -69 -95 -131 -111 -34 -9 -60 -14 -59 -10 18 37 195
271 263 346 39 42 76 89 84 103 7 15 9 23 4 17 -123 -133 -303 -347 -303 -360
0 -3 -16 -31 -35 -61 -27 -42 -47 -60 -90 -81 -30 -15 -55 -30 -55 -35 0 -4
26 6 58 21 137 68 368 61 467 -15 25 -19 49 -34 55 -34 5 0 7 -8 3 -17 -3 -10
-3 -15 2 -11 4 4 14 0 23 -9 17 -17 7 -44 -19 -51 -8 -2 -10 0 -4 5 6 4 11 16
13 27 3 14 -1 17 -13 12 -11 -4 -14 -2 -9 6 5 8 2 9 -9 5 -9 -3 -19 -2 -22 3
-4 6 1 10 10 10 9 0 14 4 10 10 -3 5 -13 7 -23 4 -15 -5 -15 -4 -2 6 12 9 8
11 -22 7 -25 -4 -48 1 -73 14 -20 11 -47 18 -59 16 -18 -3 -17 -5 9 -12 16 -5
51 -21 78 -37 43 -25 47 -26 36 -7 -9 17 -8 20 3 17 7 -3 15 -15 16 -29 2 -13
12 -33 21 -44 57 -65 90 -158 96 -268 6 -105 -20 -205 -88 -336 -30 -58 -51
-71 -74 -49 -16 17 -15 21 11 76 15 32 34 59 41 59 7 0 11 -7 8 -16 -3 -11 0
-10 11 3 9 11 16 25 16 32 0 20 -17 25 -24 8 -14 -37 -16 -4 -2 37 27 81 37
183 23 239 -14 56 -21 70 -34 70 -8 0 -12 4 -9 9 4 5 -2 23 -11 40 -31 53
-175 109 -256 98 -96 -13 -126 -26 -171 -76 -20 -22 -20 -22 0 -15 16 7 17 6
6 -8 -8 -10 -9 -18 -3 -22 6 -4 15 3 21 15 7 11 14 18 17 15 3 -2 14 4 26 15
11 10 25 19 30 19 5 0 -9 -15 -31 -32 -42 -34 -53 -62 -28 -71 10 -4 13 -1 10
8 -4 8 10 23 35 39 42 27 67 34 56 16 -3 -5 0 -10 9 -10 8 0 16 5 18 11 6 18
72 14 113 -7 50 -26 93 -95 97 -154 3 -44 2 -45 -32 -51 -34 -6 -17 -14 22
-11 25 2 23 -38 -3 -119 -40 -122 -137 -219 -218 -219 -23 0 -41 4 -41 8 0 5
-11 15 -25 22 -29 16 -68 77 -59 92 4 7 2 8 -4 4 -9 -5 -12 21 -12 99 l0 106
62 -1 c94 -1 197 6 205 14 4 4 -4 5 -17 3 -14 -2 -40 0 -58 5 -32 9 -38 24
-32 81 1 18 -12 19 -97 1 -12 -2 -25 1 -28 6 -4 6 -11 8 -16 5 -5 -4 -9 3 -9
14 0 10 5 21 10 23 6 2 -6 19 -26 38 -20 19 -34 30 -30 23 3 -6 0 -15 -7 -20
-8 -4 -22 -21 -33 -38 -16 -24 -19 -48 -19 -145 0 -114 0 -116 38 -190 21 -41
48 -85 59 -97 19 -20 19 -22 3 -47 -17 -26 -42 -37 -30 -13 4 6 -3 1 -14 -12
-33 -36 -62 -11 -51 44 1 6 -4 4 -11 -2 -21 -21 -29 -15 -17 12 l12 26 23 -25
c13 -14 23 -30 23 -36 0 -6 4 -8 10 -5 5 3 -6 26 -25 51 -58 75 -84 127 -103
201 -17 65 -19 69 -40 62 -15 -6 -22 -4 -23 4 -1 7 -2 26 -4 42 -3 30 11 163
21 200 4 16 3 17 -5 4 -19 -30 -40 -167 -35 -229 2 -25 9 -69 15 -98 9 -39 9
-62 1 -90 -6 -20 -14 -53 -16 -72 -3 -19 -8 -44 -10 -55 -9 -38 -27 -160 -31
-200 -13 -164 -16 -231 -16 -385 0 -96 3 -186 6 -200 6 -25 9 -49 19 -143 3
-27 15 -83 27 -125 14 -49 22 -99 20 -137 -3 -75 16 -130 68 -195 23 -29 41
-58 41 -66 0 -7 -10 -30 -21 -51 -12 -21 -24 -64 -27 -95 -5 -58 -13 -72 -56
-93 -29 -15 -34 -67 -7 -94 28 -28 86 -37 125 -19 27 13 35 13 66 1 19 -8 52
-13 74 -11 39 4 41 2 85 -60 73 -103 320 -381 417 -470 136 -124 298 -243 440
-322 44 -24 75 -52 104 -90 22 -30 51 -63 63 -72 17 -13 19 -18 7 -22 -18 -6
-181 -36 -225 -42 -16 -2 -48 -8 -70 -14 -22 -5 -89 -13 -150 -16 -152 -8
-176 2 -200 87 -9 34 -19 98 -22 143 -8 125 -26 139 -188 151 -49 3 -113 13
-142 21 -50 15 -52 16 -61 62 -5 26 -9 86 -8 134 1 55 -3 89 -10 92 -18 7 -75
-26 -114 -67 -57 -59 -93 -137 -93 -202 0 -51 3 -58 46 -104 67 -72 97 -197
66 -278 -16 -42 -15 -138 2 -170 33 -65 88 -97 187 -108 20 -3 70 -12 110 -21
61 -13 82 -24 131 -64 94 -78 146 -168 154 -265 7 -72 17 -100 54 -141 48 -54
124 -71 224 -49 19 4 95 37 169 74 254 124 365 166 505 191 39 6 97 18 130 26
66 14 181 30 290 39 89 7 402 8 413 1 5 -3 47 -6 93 -6 82 -1 135 -7 289 -36
126 -23 387 -110 525 -175 288 -136 390 -147 472 -50 12 14 22 35 23 47 0 11
7 29 15 40 8 10 15 32 15 48 0 61 45 165 92 217 50 55 146 107 243 132 95 24
174 74 186 117 4 14 7 73 8 132 1 134 20 215 75 326 57 114 62 150 32 217 -37
81 -93 122 -171 128 l-30 2 3 -61 c4 -66 -17 -156 -45 -186 -13 -15 -32 -18
-116 -18 -110 0 -161 -17 -213 -71 -25 -26 -27 -34 -26 -110 2 -121 -38 -202
-117 -235 -45 -19 -90 -17 -191 7 -47 11 -125 29 -175 40 -49 11 -94 21 -99
22 -9 3 79 109 159 192 38 39 140 121 177 141 9 5 36 27 60 49 23 22 90 81
148 131 58 50 130 122 160 159 30 37 91 109 135 159 45 50 91 108 104 129 12
20 27 37 32 37 5 0 17 16 26 35 9 19 21 35 25 35 5 0 6 5 2 11 -4 7 -1 10 7 7
8 -3 21 -2 29 2 8 5 39 11 68 14 64 7 89 22 101 61 6 16 12 120 16 230 3 110
10 216 15 235 5 19 21 78 35 130 40 149 57 333 58 645 1 186 -3 236 -38 470
-2 17 -11 54 -20 83 -9 29 -17 82 -18 118 -2 62 0 68 29 93 16 14 47 47 67 72
42 53 42 62 -10 126 -18 23 -33 53 -33 67 0 44 -39 131 -72 163 -48 46 -76 49
-177 22 -8 -2 -40 34 -78 91 -36 52 -96 133 -133 180 -37 47 -72 95 -78 106
-20 37 -386 378 -457 426 -39 25 -80 55 -92 65 -12 11 -60 39 -107 62 -79 40
-85 45 -96 86 -15 54 -54 112 -105 156 -22 19 -60 55 -85 81 -25 26 -58 51
-73 57 -48 18 -118 13 -160 -13z m-1749 -348 c7 -7 12 -20 12 -31 0 -10 4 -15
10 -12 5 3 7 0 4 -9 -3 -8 14 -35 44 -66 57 -60 62 -92 19 -124 -15 -11 -28
-18 -30 -15 -31 41 -66 106 -62 117 2 7 1 11 -4 8 -4 -3 -16 3 -25 13 -17 18
-16 20 1 29 10 6 14 14 9 19 -5 4 -11 2 -13 -4 -8 -21 -30 -15 -48 13 -18 28
-14 37 27 59 30 17 41 18 56 3z m2275 -75 c-5 -15 -3 -16 8 -5 20 18 31 15 24
-9 -6 -18 -5 -19 14 -7 17 10 23 9 43 -8 13 -12 38 -29 56 -40 17 -10 32 -22
32 -27 0 -4 3 -6 8 -3 4 2 22 -2 39 -9 25 -11 31 -18 26 -31 -5 -13 -3 -16 9
-11 17 6 48 -21 48 -41 0 -7 5 -12 10 -12 6 0 27 -15 46 -32 20 -18 42 -37 50
-41 8 -4 14 -15 14 -22 0 -8 4 -15 10 -15 5 0 44 -34 85 -75 42 -41 73 -75 69
-75 -4 0 4 -10 18 -22 14 -13 38 -42 53 -65 15 -24 32 -43 36 -43 5 0 9 -6 9
-13 0 -7 12 -27 28 -44 15 -17 36 -43 47 -57 11 -15 27 -34 36 -44 9 -9 30
-45 46 -79 29 -59 30 -63 13 -78 -17 -15 -19 -15 -24 2 -3 10 -20 34 -37 52
-25 28 -38 34 -70 34 -30 0 -39 3 -35 13 3 8 1 14 -4 14 -6 0 -10 -4 -10 -10
0 -5 -5 -10 -12 -10 -6 0 -4 8 7 20 16 18 19 18 44 3 15 -9 19 -9 10 -2 -9 8
-14 20 -12 27 6 15 -21 16 -49 1 -16 -9 -24 -8 -36 4 -13 14 -12 18 14 41 16
14 23 26 16 26 -7 0 -11 3 -9 8 3 4 -2 14 -11 22 -14 13 -15 12 -10 -2 4 -9
-1 -23 -11 -32 -16 -15 -19 -14 -39 4 -12 12 -23 16 -27 10 -4 -6 -12 -7 -18
-4 -7 4 5 -9 26 -27 39 -36 53 -66 15 -33 -14 12 -10 3 10 -22 37 -48 38 -54
15 -54 -27 0 -43 -14 -48 -40 -9 -46 -25 -51 -85 -25 -98 43 -168 26 -215 -50
-13 -22 -25 -35 -25 -28 0 6 5 15 10 18 18 11 10 32 -26 71 -20 22 -34 32 -31
22 3 -9 0 -23 -6 -32 -11 -15 -14 -15 -29 3 -16 19 -16 21 7 38 l24 18 -23 17
c-18 13 -23 13 -23 3 0 -8 4 -12 9 -9 14 9 9 -13 -6 -25 -22 -18 -44 14 -27
41 15 24 4 40 -12 17 -7 -9 -18 -14 -25 -11 -7 2 1 -11 17 -29 17 -18 28 -36
25 -41 -6 -10 -90 84 -99 111 -3 12 -11 18 -17 15 -6 -4 -9 -1 -6 6 2 7 12 14
22 16 21 3 35 14 17 14 -7 0 -9 5 -6 10 13 20 -13 9 -29 -12 -12 -16 -18 -19
-22 -10 -3 6 -11 9 -17 5 -7 -3 -4 3 6 14 9 11 17 30 17 44 0 23 -1 22 -21 -8
-23 -36 -32 -43 -22 -16 5 12 2 15 -9 10 -17 -6 -17 2 -1 43 8 20 6 29 -14 49
-12 14 -23 29 -23 34 0 4 -4 5 -10 2 -10 -6 -13 4 -11 40 0 11 -2 14 -5 8 -3
-7 -10 -13 -15 -13 -14 0 12 52 45 90 17 19 21 26 9 16 -32 -27 -29 -8 5 28
15 17 19 24 9 17 -30 -23 -34 -1 -4 25 15 13 24 24 20 24 -5 0 -14 -5 -21 -12
-15 -15 -16 -3 -1 23 7 15 18 19 37 16 15 -2 21 -2 14 0 -8 3 -11 12 -8 20 5
11 1 14 -13 10 -15 -4 -18 -1 -13 12 5 14 4 14 -13 1 -10 -8 -16 -10 -12 -4 4
7 8 33 9 58 0 26 4 43 7 39 3 -4 24 -18 46 -30 39 -21 41 -21 41 -2 0 10 -3
19 -6 19 -3 0 -6 8 -7 19 -1 10 4 18 10 18 42 -1 56 4 50 18 -5 14 -8 14 -29
0 -28 -18 -32 -9 -6 12 16 13 15 13 -7 7 -17 -4 -22 -3 -16 6 5 8 4 11 -3 6
-6 -4 -9 -12 -6 -19 2 -7 -2 -21 -10 -32 -11 -15 -17 -17 -28 -7 -8 6 -18 9
-21 5 -4 -3 -7 6 -7 21 0 19 7 30 25 38 14 6 25 15 25 20 0 5 -4 6 -10 3 -15
-9 -12 2 6 30 19 29 26 32 17 8z m-1231 -304 c21 7 78 9 153 5 66 -3 127 -6
135 -6 33 0 80 -20 73 -31 -4 -7 0 -6 10 1 9 8 22 10 28 6 9 -5 10 -2 6 9 -5
12 -1 17 13 17 15 0 20 -7 20 -25 0 -16 -6 -25 -15 -25 -9 0 -15 -7 -13 -17 2
-13 -5 -18 -27 -20 -20 -1 -25 1 -16 6 8 5 10 14 6 21 -5 9 -9 9 -14 1 -4 -6
-16 -13 -27 -15 -10 -2 -23 -5 -29 -6 -5 -1 -14 -1 -20 0 -5 2 -26 4 -45 5
-67 5 -176 15 -235 22 -33 4 -67 6 -75 5 -8 -1 -4 5 10 13 14 9 17 14 8 11
-10 -3 -20 0 -24 6 -9 15 18 29 33 17 8 -8 22 -7 45 0z m-7 -129 c-3 -5 -1
-10 5 -10 6 0 8 -5 4 -11 -5 -8 -1 -8 14 0 27 15 32 14 32 -4 0 -8 4 -23 9
-33 5 -9 19 -51 31 -92 13 -41 25 -82 28 -90 3 -8 6 -17 6 -20 8 -39 41 -99
57 -103 12 -3 18 -3 15 0 -3 3 -1 14 5 24 6 13 6 19 -1 19 -5 0 -10 -4 -10
-10 0 -5 -4 -10 -10 -10 -5 0 2 24 17 54 26 54 27 55 39 30 7 -14 16 -40 20
-59 3 -19 11 -35 17 -35 6 0 8 -3 5 -6 -4 -3 5 -30 18 -60 13 -30 24 -61 24
-69 0 -8 3 -15 8 -15 4 0 22 -48 41 -108 40 -129 79 -230 99 -257 13 -19 14
-19 7 5 -4 14 -18 49 -31 79 -13 29 -24 61 -24 70 0 9 -4 21 -9 27 -6 5 -13
25 -16 44 -8 49 -14 68 -41 127 -13 29 -26 64 -28 78 -3 14 -7 34 -11 44 -6
19 -4 19 56 5 91 -21 206 -62 274 -97 182 -95 383 -269 476 -412 45 -71 45
-75 -9 -76 -125 -2 -454 3 -477 7 -14 2 -25 0 -25 -5 0 -5 21 -12 48 -15 51
-5 58 -6 132 -6 28 0 56 0 63 0 6 0 149 -3 317 -6 266 -5 307 -7 318 -22 11
-15 12 -14 12 1 0 15 3 15 32 -3 17 -10 36 -16 42 -13 6 4 5 -1 -3 -10 -7 -9
-9 -17 -4 -17 5 0 10 -6 10 -13 0 -8 -16 -13 -46 -13 -157 -3 -195 -5 -183
-13 7 -4 39 -9 70 -11 91 -4 96 -5 110 -13 7 -5 12 -4 12 2 0 18 44 7 70 -17
l25 -23 -55 -50 c-89 -82 -151 -125 -163 -112 -4 3 -7 2 -7 -4 0 -6 -15 -20
-32 -32 -18 -11 -28 -21 -23 -21 6 0 -9 -9 -32 -21 -23 -11 -60 -37 -81 -57
-21 -21 -31 -31 -22 -24 9 6 30 12 46 12 19 0 25 3 16 9 -10 6 -6 13 15 26 27
18 28 18 12 -1 -9 -10 -14 -24 -12 -31 2 -6 0 -14 -6 -17 -6 -4 -8 -13 -4 -21
3 -8 0 -15 -6 -15 -6 0 -11 -7 -11 -16 0 -8 -4 -12 -10 -9 -5 3 -10 -2 -10
-12 0 -13 -3 -14 -8 -6 -6 9 -22 -2 -55 -37 -26 -28 -52 -50 -58 -50 -5 0 -7
-4 -4 -10 3 -5 1 -10 -6 -10 -7 0 -21 -7 -31 -17 -12 -10 -18 -12 -18 -4 0 7
-5 9 -12 5 -10 -6 -10 -4 0 7 6 7 12 18 12 23 0 6 -4 5 -9 -3 -12 -18 -52 -5
-44 15 4 11 8 12 20 3 11 -10 13 -9 11 2 -2 9 4 13 17 11 14 -2 16 0 7 6 -10
7 -10 11 3 22 8 7 15 17 15 23 0 6 -13 -2 -30 -18 -16 -16 -30 -25 -30 -21 0
5 -13 -6 -29 -23 -16 -17 -35 -31 -42 -31 -7 0 -35 -17 -63 -38 -28 -21 -61
-44 -73 -51 -13 -6 -45 -39 -73 -72 -70 -84 -69 -101 17 -359 19 -58 38 -108
41 -112 9 -9 9 44 0 57 -4 6 -3 17 3 25 7 13 9 12 9 -2 0 -10 5 -18 11 -18 5
0 8 4 5 9 -6 10 24 25 32 16 3 -3 0 -5 -6 -5 -6 0 -9 -7 -6 -15 4 -8 13 -15
21 -15 8 0 11 -4 8 -10 -3 -6 1 -7 9 -4 9 3 16 2 17 -2 0 -5 2 -19 3 -31 1
-12 -1 -20 -6 -17 -4 3 -8 1 -8 -3 0 -5 9 -14 21 -21 12 -8 18 -19 15 -28 -3
-9 -1 -12 4 -9 9 6 15 -22 11 -52 -1 -7 2 -13 7 -13 15 0 21 -38 8 -50 -7 -5
-15 -7 -18 -4 -3 3 -9 0 -14 -7 -4 -7 -3 -10 3 -6 6 4 13 -3 15 -16 3 -17 0
-23 -13 -23 -10 0 -16 3 -13 7 2 4 -4 6 -13 4 -10 -2 -20 -4 -22 -4 -3 -1 4
-8 15 -16 16 -13 16 -14 2 -9 -10 3 -18 5 -18 3 1 -9 27 -76 37 -95 7 -12 10
-24 7 -26 -2 -3 5 -31 17 -62 11 -32 19 -68 16 -82 -3 -16 0 -24 9 -24 8 0 14
-7 14 -16 0 -13 -3 -14 -14 -5 -7 6 -21 8 -31 5 -11 -4 -13 -9 -6 -14 13 -7 3
-70 -10 -70 -5 0 -9 -8 -9 -17 1 -17 1 -17 11 0 5 9 15 17 20 17 6 0 7 -6 2
-12 -4 -7 -8 -20 -8 -28 0 -10 -10 -15 -32 -15 -17 0 -29 4 -26 8 3 5 -3 7
-13 5 -11 -2 -29 7 -41 20 -14 15 -27 21 -35 16 -11 -6 -11 -5 0 8 10 13 10
17 -3 22 -8 3 -22 3 -30 0 -8 -4 -15 -1 -15 6 0 6 -5 8 -12 4 -6 -4 -8 -3 -4
4 3 5 -10 20 -29 32 -19 12 -35 26 -35 31 0 5 -5 9 -11 9 -5 0 -7 -6 -4 -12 4
-7 0 -5 -8 5 -8 9 -19 17 -26 17 -6 0 -11 3 -11 8 0 6 -25 21 -85 51 -5 3 -4
-3 4 -12 7 -9 18 -14 24 -10 6 4 7 1 3 -6 -5 -7 -15 -10 -23 -6 -13 4 -13 3
-4 -9 9 -11 9 -15 -1 -20 -7 -3 -3 -4 10 -2 18 3 28 -5 20 -16 -1 -2 4 -13 11
-25 10 -20 9 -23 -5 -23 -10 0 -14 3 -11 7 4 4 -6 12 -23 20 -27 11 -29 15
-20 32 11 22 5 28 -26 26 -17 -2 -21 3 -19 21 1 17 -8 31 -33 51 -23 17 -37
23 -40 15 -2 -7 -9 -12 -15 -12 -8 0 -8 3 1 12 16 16 -3 49 -25 41 -12 -5 -15
-2 -10 10 3 9 2 19 -4 22 -5 4 -7 11 -4 16 4 5 2 9 -4 9 -6 0 -7 8 -4 18 6 15
5 15 -10 4 -14 -12 -17 -10 -23 12 -3 14 -10 23 -15 20 -5 -3 -9 0 -9 6 0 7
-8 9 -20 5 -14 -4 -20 -2 -18 7 2 7 -5 12 -15 11 -13 -1 -17 4 -13 14 4 11 2
13 -9 9 -8 -3 -15 -1 -15 5 0 6 -8 8 -17 5 -17 -6 -17 -5 -1 7 16 12 15 14 -3
28 -12 8 -31 22 -42 33 -56 48 -105 60 -160 37 -23 -9 -179 -119 -247 -174 -8
-7 -42 -34 -75 -60 -33 -26 -69 -56 -80 -66 -11 -10 -33 -26 -48 -36 -16 -10
-26 -24 -23 -31 8 -20 -4 -44 -20 -44 -7 0 -11 -6 -8 -14 3 -8 1 -17 -5 -21
-6 -3 -11 1 -11 9 0 9 -4 16 -9 16 -11 0 -23 -29 -16 -40 3 -4 -3 -14 -13 -21
-15 -13 -16 -12 -3 4 9 11 10 17 2 17 -6 0 -14 -6 -17 -13 -2 -7 -14 -14 -26
-14 -11 -1 -26 -7 -32 -14 -8 -9 -8 -10 2 -5 6 4 12 2 12 -4 0 -6 5 -8 12 -4
7 4 8 3 4 -4 -4 -7 -18 -9 -32 -6 -14 4 -24 2 -24 -5 0 -6 5 -11 11 -11 5 0 7
-5 3 -11 -5 -8 -10 -7 -16 4 -9 17 15 67 32 67 16 0 76 45 100 75 l25 30 -32
-23 c-18 -13 -33 -28 -33 -33 0 -6 -4 -8 -8 -5 -10 6 -60 -26 -174 -111 -31
-24 -58 -43 -61 -43 -3 0 -28 -16 -57 -35 -50 -34 -79 -43 -93 -28 -4 3 -2 12
3 19 6 6 10 16 8 20 -2 9 9 73 19 109 4 17 3 18 -8 7 -8 -7 -14 -16 -15 -20
-2 -18 -43 -100 -53 -107 -6 -3 -14 1 -17 9 -3 9 -12 16 -20 16 -20 0 -18 9
27 165 22 77 43 152 45 167 3 15 14 58 25 95 34 117 50 186 46 202 -3 11 -5 9
-6 -5 0 -12 -13 -52 -27 -90 -14 -38 -28 -77 -31 -86 -8 -26 -14 -23 -59 24
-59 63 -105 140 -156 263 -79 189 -116 351 -124 550 -5 110 -4 133 10 150 16
20 16 20 33 -1 10 -12 56 -50 103 -85 47 -35 87 -66 90 -69 11 -12 109 -88
157 -123 60 -44 109 -101 118 -140 4 -14 1 -43 -6 -64 -7 -21 -14 -43 -15 -49
-4 -22 -55 -169 -64 -186 -7 -12 -7 -18 0 -18 5 0 16 13 24 28 18 35 57 150
60 177 3 21 22 58 46 89 9 11 10 16 3 12 -9 -5 -11 -2 -6 11 10 30 36 54 52
49 27 -8 54 20 47 47 -7 30 -42 74 -51 65 -6 -5 -12 -27 -14 -50 -1 -5 -10
-17 -22 -29 l-20 -20 -35 21 c-18 12 -34 19 -34 16 0 -4 -29 17 -64 46 -35 29
-92 74 -127 100 -35 26 -73 55 -84 65 -11 10 -36 29 -55 42 -19 13 -39 29 -45
35 -5 6 -23 19 -38 29 -16 10 -26 24 -24 32 3 7 -1 12 -11 11 -10 -1 -16 6
-16 17 1 9 -4 17 -12 17 -7 0 -18 9 -24 19 -6 12 -17 17 -28 14 -24 -6 -27 31
-4 48 14 11 15 11 5 -1 -19 -21 -16 -33 7 -27 13 3 20 0 20 -10 0 -8 4 -12 10
-8 10 6 2 36 -14 47 -5 3 8 5 28 3 42 -4 61 -14 30 -16 -10 -1 -22 -1 -26 0
-12 2 -9 -17 3 -25 6 -3 14 -2 18 4 9 14 47 8 43 -7 -1 -7 3 -11 10 -10 26 3
37 -1 34 -13 -1 -7 -1 -10 1 -5 3 4 9 5 14 1 5 -3 9 -3 9 -1 0 7 -128 107
-137 107 -12 1 -73 58 -73 69 0 5 -6 11 -12 14 -9 3 -5 19 15 56 32 60 32 62
10 54 -13 -5 -15 -3 -9 13 5 10 9 24 9 30 0 7 9 9 21 6 20 -6 20 -6 2 -10 -14
-3 -16 -6 -6 -12 9 -6 20 0 33 17 15 19 22 22 28 11 7 -11 9 -11 9 1 0 8 7 11
20 8 13 -3 26 2 36 16 l16 22 -5 -22 c-7 -32 5 -29 26 6 10 17 29 32 45 36 29
6 85 44 66 45 -6 0 -17 -7 -24 -15 -14 -17 -46 -20 -55 -5 -3 6 1 10 9 10 9 0
16 5 16 10 0 6 11 10 24 10 27 0 42 15 27 25 -29 17 70 155 199 278 96 91 271
224 301 228 19 3 25 5 55 22 50 26 178 70 247 83 32 6 33 1 8 -68 -10 -29 -31
-98 -46 -153 -15 -55 -36 -118 -45 -140 -10 -22 -24 -58 -31 -80 -7 -22 -18
-53 -24 -70 -7 -16 -16 -40 -20 -53 -10 -34 -37 -43 -140 -45 -52 -1 -91 -5
-86 -10 11 -11 162 -10 193 2 35 13 45 34 113 241 52 158 92 270 126 355 15
36 14 33 24 70 4 17 15 44 23 60 9 17 17 36 19 43 10 39 12 48 12 53 1 4 12
10 26 13 14 4 25 11 25 17 0 8 -5 7 -15 -1 -9 -7 -18 -10 -22 -6 -3 3 -1 6 6
6 7 0 10 4 6 9 -3 6 3 8 15 6 11 -2 22 0 25 6 13 20 23 7 20 -23 -4 -32 -4
-32 11 -9 9 12 14 25 11 27 -9 9 39 104 59 119 23 17 27 18 19 5z m-567 -277
c-2 -5 -13 -29 -25 -54 -25 -55 -35 -63 -79 -61 -22 1 -42 -6 -58 -22 -19 -17
-39 -23 -81 -25 -54 -2 -56 -1 -45 18 11 22 13 23 72 23 21 0 35 4 33 9 -3 4
-26 7 -50 5 -25 -1 -45 1 -45 5 0 15 54 49 69 44 9 -2 33 10 54 28 33 27 48
32 99 35 33 1 58 -1 56 -5z m1792 -32 c0 -6 -4 -12 -9 -15 -5 -3 -8 -17 -8
-31 l0 -26 23 22 c16 15 24 18 24 9 0 -7 3 -11 6 -7 3 3 28 -18 55 -46 27 -29
55 -52 62 -52 7 -1 11 -7 9 -14 -1 -7 9 -22 23 -33 14 -11 23 -23 20 -27 -2
-5 7 -19 20 -31 27 -25 33 -68 13 -88 -15 -15 -28 -15 -28 -1 0 14 -52 77
-137 167 -40 41 -73 79 -73 83 0 4 -9 11 -21 14 -12 4 -18 13 -15 20 3 10 0
12 -12 7 -12 -4 -10 2 8 25 25 32 40 41 40 24z m-635 -68 c-5 -15 -4 -16 6 -5
19 18 28 15 23 -10 -2 -13 -2 -17 2 -10 9 19 45 14 51 -7 3 -13 10 -18 21 -14
11 5 13 3 7 -6 -5 -10 -2 -11 14 -6 12 4 21 2 21 -4 0 -6 6 -11 14 -11 8 0 28
-11 44 -25 32 -27 42 -31 42 -15 0 6 -6 10 -14 10 -8 0 -18 5 -21 10 -13 21
22 9 51 -17 17 -16 22 -22 12 -14 -12 9 -18 10 -18 3 0 -6 10 -17 23 -23 12
-6 55 -38 94 -70 40 -33 77 -59 83 -59 5 0 10 -6 10 -13 0 -7 8 -20 18 -29 9
-9 35 -40 57 -68 22 -28 54 -67 72 -87 44 -49 68 -100 54 -117 -19 -23 -70 -7
-88 28 -49 94 -288 343 -372 385 -22 12 -42 25 -45 29 -3 5 -49 31 -103 57
-54 26 -100 49 -102 51 -2 2 1 15 7 29 13 29 48 36 37 8z m1410 -37 c15 -1 19
-7 17 -25 -3 -16 0 -21 8 -16 8 5 11 3 8 -6 -6 -14 -11 -15 -39 -4 -10 4 -19
-3 -27 -20 -17 -37 -15 -49 10 -71 17 -15 20 -16 16 -3 -4 10 -1 16 8 16 8 0
13 -6 10 -13 -3 -8 0 -11 10 -7 7 3 14 0 14 -6 0 -24 58 -9 115 30 33 22 62
43 65 45 13 14 -56 -19 -83 -40 -59 -43 -73 -41 -35 6 42 52 112 91 148 83 14
-3 31 -6 38 -7 6 -1 12 -5 12 -9 0 -5 6 -6 14 -3 8 3 19 -3 26 -15 6 -12 9
-21 8 -22 -26 -7 -48 -7 -45 -2 3 5 -14 9 -36 10 l-42 2 34 -15 c25 -11 31
-18 21 -24 -7 -4 -22 -5 -33 -1 -16 6 -28 -1 -54 -30 -28 -31 -33 -42 -27 -66
14 -57 50 -75 107 -54 23 9 52 65 45 87 -2 5 2 11 7 14 6 3 11 -10 13 -29 3
-24 -3 -40 -19 -57 -12 -13 -18 -24 -12 -24 5 0 20 11 33 25 13 14 29 25 37
25 7 0 13 5 13 10 0 6 5 10 10 10 34 0 -78 -87 -123 -96 -11 -2 -28 -12 -38
-23 -17 -18 -17 -20 3 -37 14 -13 37 -19 74 -20 46 -1 57 2 73 22 22 28 28 30
28 9 0 -25 -43 -56 -86 -62 -41 -6 -65 -23 -43 -31 15 -5 15 -37 1 -64 -13
-25 -74 -51 -99 -43 -26 8 -60 -11 -60 -35 0 -26 10 -50 22 -50 5 0 7 4 3 9
-3 5 -1 12 5 16 6 4 8 11 5 16 -4 5 1 9 9 9 9 0 16 -6 16 -14 0 -18 -45 -66
-65 -67 -8 -1 -20 -2 -27 -3 -6 0 -12 -14 -12 -29 -1 -16 -10 -33 -20 -39 -9
-5 -29 -23 -43 -38 -25 -28 -25 -28 -45 -8 -18 18 -21 18 -41 4 -36 -26 -49
-30 -58 -15 -5 8 -9 10 -9 6 0 -12 -30 20 -30 32 0 6 -4 11 -9 11 -18 0 -41
32 -41 56 0 17 -8 28 -27 36 -16 7 -29 13 -31 14 -4 2 42 73 49 74 3 0 6 -6 6
-13 0 -14 46 -89 81 -132 33 -40 62 -55 92 -48 27 6 130 107 130 127 0 6 4 16
9 22 5 5 23 51 40 103 47 141 41 219 -19 269 -41 34 -61 42 -120 46 -36 2 -56
2 -45 -1 26 -7 57 -43 51 -60 -3 -7 3 -17 12 -23 16 -11 16 -11 0 -6 -10 3
-20 0 -24 -5 -4 -7 4 -10 22 -8 16 2 30 -1 31 -6 1 -6 -7 -9 -19 -7 -15 1 -19
-2 -14 -13 3 -9 2 -13 -4 -10 -6 3 -10 -1 -10 -10 0 -10 -5 -13 -12 -9 -7 5
-8 3 -3 -6 4 -7 2 -16 -6 -21 -11 -6 -10 -12 5 -28 23 -25 14 -27 -19 -5 -23
15 -25 15 -25 0 0 -10 -4 -14 -10 -11 -5 3 -10 -1 -10 -9 0 -21 -21 -31 -31
-15 -7 10 -8 7 -6 -11 2 -14 1 -36 -4 -50 -7 -24 -7 -23 -8 7 -1 35 -38 83
-58 76 -7 -3 -13 0 -13 6 0 6 -8 8 -17 4 -38 -13 -41 -21 -28 -77 7 -30 11
-56 9 -58 -1 -2 -28 -3 -58 -2 -64 2 -93 23 -106 78 -7 31 -5 38 11 47 11 5
17 14 14 20 -4 5 5 13 19 19 35 13 50 44 34 71 -11 17 -20 19 -48 15 -19 -3
-47 -6 -62 -6 -15 0 -34 -7 -43 -16 -15 -15 -15 -18 4 -38 12 -12 21 -25 21
-29 0 -16 -24 -5 -46 20 l-23 27 21 29 c11 16 27 30 34 33 43 13 48 16 39 22
-10 7 -17 27 -18 50 0 16 -14 15 -20 -2 -3 -7 0 -19 6 -26 9 -10 9 -11 0 -6
-8 4 -13 2 -13 -7 0 -7 -8 -22 -18 -33 -10 -10 -28 -34 -40 -51 -27 -38 -33
-40 -49 -14 -11 18 -7 26 36 73 42 47 49 60 53 108 5 49 10 58 48 92 33 29 51
38 79 38 51 0 81 -10 81 -27 0 -8 4 -12 9 -8 5 3 12 1 15 -4 3 -5 20 -8 36 -7
25 1 35 9 53 41 24 43 62 58 122 47 17 -2 39 -5 50 -6z m-990 -35 c-3 -14 1
-18 11 -14 8 3 13 11 11 17 -3 7 11 12 35 14 23 1 37 -1 34 -7 -4 -5 -1 -22 5
-38 6 -15 12 -35 14 -44 2 -8 10 -40 19 -69 22 -73 21 -90 -6 -90 -24 0 -58
26 -58 45 0 15 -32 16 -43 1 -5 -6 -6 -2 -2 10 3 13 0 28 -10 38 -9 8 -18 39
-21 68 -3 29 -11 56 -16 59 -13 9 -1 29 17 29 8 0 12 -8 10 -19z m301 -78 c35
-38 75 -90 90 -116 24 -45 25 -49 10 -72 -9 -13 -16 -33 -16 -45 0 -24 2 -24
-44 -5 -20 8 -36 11 -36 6 0 -5 12 -12 27 -16 15 -3 40 -16 57 -28 37 -27 64
-43 93 -56 13 -6 20 -17 18 -28 -4 -24 -8 -22 -106 36 -46 28 -123 66 -169 85
-48 20 -86 42 -88 51 -2 8 -8 15 -14 15 -6 0 -9 2 -7 5 3 2 30 -5 60 -16 74
-28 112 -39 117 -35 2 2 -6 7 -18 11 -12 4 -19 12 -17 18 2 7 -6 45 -19 85
-12 41 -21 87 -19 103 3 17 0 27 -5 24 -14 -9 -12 19 2 33 7 7 14 12 16 12 2
0 33 -30 68 -67z m-2282 15 c-3 -12 -8 -36 -9 -53 -2 -27 -10 -34 -94 -76 -51
-26 -98 -52 -104 -58 -17 -17 -37 -13 -37 7 0 14 2 15 9 2 8 -11 18 -5 51 30
56 61 72 94 21 46 -48 -47 -69 -40 -23 7 37 39 41 52 10 36 l-23 -12 20 24
c38 47 74 66 61 33 -3 -8 -2 -12 4 -9 6 3 10 13 10 21 0 8 4 13 8 10 5 -3 22
-1 38 4 52 15 66 13 58 -12z m2347 -363 c33 -8 121 -74 114 -85 -3 -4 -43 -9
-90 -9 -77 -1 -85 1 -85 19 0 10 -4 21 -9 24 -12 7 -24 74 -16 86 4 6 17 3 34
-9 15 -11 38 -22 52 -26z m979 -268 c0 7 6 10 14 7 16 -6 11 -33 -8 -47 -6 -5
-2 -6 10 -3 13 4 21 2 21 -6 0 -7 6 -49 12 -94 10 -67 13 -141 10 -234 -1 -8
2 -53 6 -100 3 -47 2 -104 -3 -127 -6 -28 -6 -43 0 -43 7 0 6 -107 -1 -149 -1
-3 -7 3 -15 14 -8 11 -12 36 -9 63 3 36 1 43 -12 38 -8 -3 -15 -1 -15 4 0 6 5
10 10 10 6 0 10 5 10 11 0 5 -4 8 -9 4 -13 -7 -19 24 -11 55 4 14 6 52 4 85
-2 33 -5 94 -6 135 -2 41 -6 80 -9 85 -3 6 -5 29 -4 52 1 23 -1 40 -5 38 -5
-3 -8 25 -14 112 0 11 -5 19 -10 16 -4 -3 -5 5 0 18 4 13 8 33 10 44 1 11 3
22 3 25 1 3 6 -2 11 -10 6 -9 10 -11 10 -3z m-162 -19 c12 -16 43 -167 48
-236 2 -29 7 -58 11 -64 3 -7 8 -93 9 -192 1 -100 3 -185 5 -191 2 -5 -3 -31
-10 -57 -7 -26 -11 -54 -8 -62 4 -9 -2 -16 -16 -20 -37 -10 -47 -7 -41 12 5
16 5 16 -5 0 -10 -14 -71 -24 -71 -11 0 2 12 15 26 30 24 24 25 26 7 43 -10 9
-23 15 -29 13 -6 -2 -17 3 -24 12 -7 9 -8 15 -2 15 6 0 12 -3 15 -7 2 -5 2 -2
0 6 -2 8 1 17 6 21 6 3 -3 14 -21 24 -17 11 -28 14 -25 8 4 -5 0 -13 -9 -16
-9 -4 -14 -9 -11 -12 3 -3 14 -1 26 5 11 6 22 7 25 2 8 -13 -47 -21 -62 -9 -9
8 -19 6 -35 -8 -12 -10 -24 -20 -26 -21 -2 -1 0 -8 6 -15 10 -15 10 -24 -2
-52 -6 -13 -5 -21 3 -24 7 -2 12 -8 12 -13 0 -13 -37 -11 -46 2 -4 8 -9 8 -17
0 -22 -22 -36 -12 -31 22 2 17 7 136 10 262 5 177 9 234 20 246 8 9 11 19 7
24 -5 4 -2 5 5 1 10 -6 10 -13 -4 -33 -15 -24 -15 -26 0 -20 13 5 16 0 16 -26
0 -46 13 -63 33 -43 20 20 34 2 16 -20 -6 -8 -9 -17 -6 -20 7 -7 30 34 34 60
2 14 -1 17 -14 12 -10 -4 -14 -4 -10 0 4 4 1 14 -6 23 -11 14 -10 14 6 2 9 -8
20 -11 23 -8 3 3 -6 13 -19 23 l-24 19 23 17 c25 20 44 23 44 7 0 -6 -7 -8
-17 -4 -15 5 -16 4 -5 -7 10 -10 16 -8 34 10 l22 22 -21 0 c-12 0 -25 5 -29
12 -5 8 -2 9 9 5 10 -3 17 -2 17 2 0 5 -5 11 -11 13 -5 2 -7 11 -3 21 3 10 13
16 20 13 8 -3 14 -2 14 3 0 12 -26 32 -32 26 -3 -3 -3 5 -1 19 3 13 15 34 28
46 19 18 27 20 45 10 31 -17 24 -56 -10 -52 -20 2 -22 0 -10 -9 11 -8 12 -12
3 -16 -18 -7 -16 -33 2 -33 8 0 12 6 9 14 -4 10 2 12 21 9 14 -3 25 -10 24
-17 -3 -26 2 -56 9 -56 4 0 8 32 8 70 0 39 -4 70 -9 70 -4 0 -5 16 -1 35 4 25
3 35 -6 35 -9 0 -9 4 1 17 12 14 12 16 0 8 -10 -5 -12 -4 -7 3 9 15 21 15 34
0z m-4533 -157 c-1 -25 -7 -47 -13 -49 -9 -3 -9 -9 -1 -24 7 -14 7 -18 1 -14
-7 4 -9 -7 -6 -34 3 -23 1 -40 -5 -40 -6 0 -7 -8 -2 -21 4 -12 4 -41 1 -65 -4
-24 -3 -49 1 -56 4 -6 4 -19 -1 -29 -5 -9 -7 -19 -4 -21 2 -3 5 -50 5 -104 0
-55 4 -116 8 -136 6 -23 5 -40 -2 -47 -8 -8 -8 -11 0 -11 6 0 8 -11 5 -25 -2
-14 0 -25 5 -25 5 0 9 -21 8 -47 -1 -27 3 -51 8 -54 5 -4 11 -23 13 -43 3 -20
8 -46 13 -59 9 -23 -1 -53 -23 -70 -7 -6 -4 -7 7 -3 23 7 22 -7 -4 -35 -11
-13 -18 -18 -14 -11 3 6 -1 15 -10 18 -12 5 -13 9 -4 20 10 12 8 13 -7 7 -17
-6 -18 -5 -4 12 12 15 12 17 1 10 -11 -6 -13 -4 -8 8 3 9 2 19 -4 23 -6 3 -8
12 -5 19 2 7 1 16 -4 21 -4 5 -11 32 -14 59 -3 28 -11 68 -17 90 -35 136 -12
708 33 798 8 16 10 16 27 0 14 -13 18 -30 16 -62z m305 -31 c-10 -34 -4 -38
16 -12 12 16 13 15 14 -8 0 -14 -7 -36 -16 -48 -16 -23 -12 -43 9 -41 8 0 8 2
-1 6 -17 7 4 33 27 33 9 0 23 6 29 12 19 19 6 -89 -13 -119 -9 -13 -13 -23
-10 -23 8 0 40 31 41 39 6 45 19 91 32 111 9 14 16 28 15 31 -1 4 7 15 19 25
12 11 19 15 16 9 -24 -41 -40 -340 -28 -515 4 -47 3 -89 -1 -94 -11 -13 -75
38 -106 85 l-26 39 -31 -47 c-26 -40 -37 -48 -66 -51 -60 -5 -63 -8 -43 -44
10 -18 24 -39 31 -46 35 -38 72 -103 65 -115 -18 -28 -10 -38 13 -16 13 13 24
17 24 10 0 -8 7 -10 21 -6 20 7 20 7 2 -21 l-18 -28 33 24 c17 13 32 29 32 34
0 6 4 4 10 -4 14 -22 25 -3 25 43 0 31 4 42 17 45 14 3 15 -2 7 -39 -5 -23 -8
-44 -5 -46 6 -7 46 7 45 15 -3 19 2 32 12 32 6 0 8 -7 5 -17 -6 -16 -6 -16 12
0 18 16 20 16 36 -2 19 -21 15 -51 -8 -70 -7 -6 -44 -15 -82 -20 -46 -7 -73
-16 -82 -28 -15 -21 3 -32 21 -13 9 10 9 11 -3 5 -8 -5 -12 -4 -7 0 13 15 77
17 77 3 0 -7 14 -29 30 -48 l28 -35 26 24 c19 18 26 21 26 9 0 -27 -34 -47
-85 -50 -77 -5 -79 -13 -83 -308 -1 -135 -6 -256 -9 -270 -13 -50 -20 41 -20
265 1 229 -3 259 -32 274 -13 8 -17 5 -18 -11 -1 -13 3 -18 12 -14 20 7 28 -9
11 -23 -11 -10 -18 -7 -30 11 -9 12 -16 18 -16 14 0 -14 31 -46 45 -46 7 0 10
-15 9 -42 -2 -24 -3 -52 -3 -63 -1 -14 -12 -25 -34 -33 -43 -16 -47 -15 -47 4
0 10 6 14 14 11 21 -8 48 16 40 36 -3 9 -10 17 -15 17 -4 0 -17 10 -29 22 -16
17 -20 18 -20 6 0 -19 -27 -31 -36 -16 -4 7 -3 8 4 4 7 -4 12 -1 12 9 0 13 -4
14 -21 4 -15 -8 -24 -8 -32 0 -8 8 -5 11 12 11 14 0 20 4 15 12 -5 7 -2 9 7 6
20 -8 23 39 4 58 -8 9 -15 11 -15 5 0 -5 4 -12 10 -16 13 -8 -21 -45 -42 -45
-22 0 -35 40 -17 51 8 4 23 14 33 22 18 13 18 14 -3 12 -11 -1 -35 -15 -52
-31 -30 -28 -31 -28 -18 -4 7 14 12 29 11 33 -1 5 2 6 7 3 15 -10 35 22 23 37
-6 6 -10 17 -9 22 1 6 -12 11 -30 13 -28 3 -33 0 -40 -25 -4 -15 -6 -36 -4
-47 1 -10 -2 -15 -7 -12 -6 3 -20 -6 -32 -21 -38 -49 -12 -127 72 -211 49 -50
50 -52 38 -82 -7 -17 -25 -47 -41 -66 -19 -24 -31 -54 -35 -86 -6 -44 -11 -52
-45 -74 -42 -26 -48 -44 -24 -64 13 -11 25 -10 68 8 30 13 71 21 94 20 32 -1
56 7 103 35 34 21 63 37 65 37 2 0 1 -9 -2 -20 -5 -19 -75 -60 -103 -60 -7 0
-19 -8 -26 -18 -10 -14 -15 -15 -25 -4 -20 18 -55 15 -108 -12 -26 -14 -55
-24 -65 -22 -23 3 -56 33 -56 49 0 16 34 49 68 66 20 11 23 18 19 57 -4 39 0
52 39 111 53 83 55 102 10 94 -5 -1 -6 5 -3 14 4 9 1 15 -8 15 -7 0 -17 9 -20
20 -3 11 -11 20 -16 20 -16 0 -59 102 -59 141 0 39 21 65 45 55 15 -5 16 -2
19 55 1 37 24 75 53 88 13 6 21 16 18 21 -3 6 -2 10 4 10 6 0 6 11 0 32 -9 33
-21 128 -21 161 1 9 -3 15 -7 13 -4 -3 -7 15 -6 39 1 33 -3 45 -13 45 -10 0
-11 4 -5 13 14 18 18 161 4 153 -6 -4 -11 -2 -11 3 0 6 6 11 14 11 11 0 13 7
7 28 -8 30 -7 52 4 101 5 26 4 32 -6 26 -8 -6 -7 -1 3 13 10 16 13 35 8 71 -4
33 -2 58 7 73 7 13 12 30 13 39 0 9 8 23 17 30 14 12 16 12 8 0 -6 -11 -4 -13
9 -8 11 5 15 3 10 -5 -11 -18 -14 -182 -3 -171 5 5 11 20 14 32 2 12 18 37 35
54 l32 32 -37 -70 c-32 -60 -33 -66 -12 -45 13 14 22 28 20 33 -2 4 3 7 12 7
11 0 15 5 11 15 -3 9 6 27 22 43 15 15 20 19 11 7 -28 -36 -33 -51 -7 -24 13
14 31 28 39 31 12 4 12 7 0 22 -11 13 -11 22 -3 41 16 34 22 31 12 -5z m3850
-120 c0 -4 -6 -11 -12 -13 -10 -4 -10 -7 0 -15 8 -5 11 -23 9 -46 -2 -20 -1
-39 4 -42 7 -4 6 -104 -4 -317 -2 -37 -9 -73 -15 -79 -7 -7 -12 -8 -12 -4 0 5
-7 2 -16 -5 -15 -12 -16 -7 -9 61 4 41 8 94 8 118 0 23 3 44 6 47 4 2 6 33 5
69 -2 56 0 66 14 67 15 1 15 2 1 6 -12 3 -16 15 -15 46 1 23 6 49 11 56 6 10
4 12 -5 6 -9 -5 -10 -2 -5 14 4 13 2 21 -5 21 -6 0 -9 4 -6 8 6 11 46 13 46 2z
m-466 -209 c-3 -184 -9 -230 -44 -367 -51 -196 -214 -488 -262 -469 -24 10
-81 197 -138 457 -27 124 -21 151 51 216 29 26 68 58 88 71 20 14 59 43 88 65
28 23 66 52 85 66 18 13 51 43 73 65 22 23 45 41 50 41 7 1 10 -51 9 -145z
m236 -105 c0 -2 3 -12 7 -22 5 -13 3 -15 -7 -9 -8 5 -11 4 -6 -3 3 -6 -5 -19
-19 -30 -32 -25 -32 -32 3 -28 15 2 33 4 40 5 7 0 10 6 7 11 -4 7 -13 7 -26 0
-24 -13 -24 -6 -2 20 20 23 38 27 29 5 -3 -8 1 -18 8 -22 27 -17 35 -46 18
-72 -24 -40 -94 -111 -104 -105 -4 3 -5 11 -1 17 4 7 0 6 -10 -2 -18 -14 -23
-26 -8 -16 19 11 23 -17 5 -36 -13 -14 -20 -16 -25 -7 -4 7 -5 16 -3 20 3 4
-1 8 -10 8 -8 0 -20 16 -26 36 -12 35 -11 37 36 86 29 30 41 48 30 44 -20 -7
-20 -7 0 16 10 12 25 29 32 36 7 7 10 18 7 23 -7 11 3 29 16 29 5 0 9 -2 9 -4z
m-2948 -59 c-2 -9 2 -17 8 -17 6 0 8 -5 5 -11 -4 -6 -13 -8 -21 -5 -8 3 -14 1
-14 -4 0 -6 9 -10 21 -10 13 0 20 -6 18 -17 -1 -10 0 -20 1 -23 1 -3 10 -41
20 -85 46 -202 175 -466 268 -549 12 -10 19 -23 16 -27 -3 -5 0 -9 5 -9 13 0
15 -56 3 -64 -11 -6 -73 50 -65 58 4 3 0 6 -8 6 -13 0 -109 120 -109 136 0 4
-6 15 -14 23 -27 30 -128 287 -131 331 -1 8 3 21 8 28 7 8 4 12 -8 12 -17 0
-17 1 -2 18 10 10 17 25 17 33 -1 8 -7 3 -15 -11 -13 -24 -14 -24 -20 -5 -4
11 -11 28 -16 38 -5 10 -9 43 -8 74 2 44 7 62 23 76 17 15 17 18 4 13 -10 -3
-20 -1 -22 3 -3 5 5 8 17 7 15 -1 21 -7 19 -19z m3222 -144 c-10 -7 -16 -14
-13 -14 8 -2 174 -7 285 -9 126 -2 142 -7 123 -39 -8 -11 -17 -21 -22 -21 -4
0 -5 5 -1 12 5 7 3 8 -7 2 -23 -14 -41 -14 -35 2 3 8 -1 14 -9 14 -8 0 -14 -5
-12 -12 1 -8 -18 -13 -63 -14 -416 -13 -415 -13 -424 -42 -3 -9 -7 -115 -8
-235 -1 -120 -6 -223 -10 -230 -14 -21 -28 14 -29 73 -1 30 -3 91 -6 135 -2
44 -4 110 -4 148 0 79 -15 91 -18 15 -2 -29 -3 -58 -4 -65 0 -7 -16 -27 -36
-45 -20 -18 -32 -29 -28 -24 4 5 3 14 -2 20 -5 6 -14 27 -19 46 -6 19 -20 61
-32 93 -15 41 -19 62 -12 69 7 7 19 -5 39 -41 15 -28 34 -51 42 -51 11 0 9 4
-5 14 -18 14 -18 16 16 46 27 24 36 28 38 16 7 -31 20 -15 25 31 7 64 31 83
111 84 33 1 67 1 74 0 6 -1 18 11 24 26 16 36 32 47 37 26 2 -9 -5 -23 -15
-30z m-470 13 c-3 -8 1 -20 9 -27 13 -12 13 -16 -1 -33 -10 -11 -11 -16 -4
-12 16 9 15 3 -5 -42 -9 -20 -15 -41 -14 -45 4 -21 -55 -169 -95 -236 -24 -40
-44 -77 -44 -80 0 -4 -14 -20 -32 -37 -18 -16 -27 -21 -20 -12 18 23 -5 63
-25 46 -8 -6 5 20 28 57 22 37 52 95 65 129 52 137 74 181 88 184 9 2 16 -2
16 -10 0 -10 3 -9 10 2 15 23 12 30 -12 30 -21 0 -21 2 7 20 25 17 27 20 10
20 -19 1 -19 1 -2 11 9 6 15 14 12 20 -4 5 -3 14 0 19 9 15 15 12 9 -4z m736
-136 c10 0 20 -6 23 -12 3 -10 9 -10 26 0 22 13 30 -1 9 -15 -7 -4 -14 -16
-14 -26 -2 -15 1 -16 14 -5 13 12 14 10 3 -9 -14 -27 3 -32 18 -5 6 9 11 12
11 5 0 -6 -6 -18 -12 -25 -36 -39 -52 -61 -38 -53 8 4 12 4 7 0 -4 -5 1 -18
10 -29 18 -20 18 -21 -2 -5 -36 29 -40 28 -39 -4 1 -18 -1 -49 -5 -70 -6 -36
-7 -37 -26 -22 -14 11 -16 18 -7 21 6 3 12 13 12 22 0 14 -2 15 -9 3 -7 -11
-10 -6 -13 20 -2 23 -9 35 -20 37 -15 3 -18 -5 -19 -45 -3 -108 -3 -107 -24
-111 -11 -2 -17 -1 -14 2 4 4 3 24 -2 44 -5 20 -12 71 -15 113 -5 74 -4 77 21
97 l26 20 -28 26 c-22 21 -24 26 -10 26 9 0 17 -5 17 -12 0 -7 6 -6 18 4 9 9
22 13 29 11 6 -2 15 2 19 8 6 10 9 10 12 1 2 -7 12 -12 22 -12z m-3695 -111
c4 -10 9 -19 13 -19 9 0 13 -51 5 -70 -3 -8 -7 -21 -9 -28 -6 -30 -12 -20 -18
27 -5 36 -12 54 -27 62 -23 12 -39 4 -113 -60 -50 -44 -87 -58 -43 -17 26 24
27 43 5 72 -9 13 37 48 51 40 5 -3 13 0 19 7 6 7 29 11 61 9 39 -3 52 -8 56
-23z m3045 -44 c0 -19 4 -35 9 -35 5 0 11 -15 15 -32 7 -37 10 -34 -110 -117
l-70 -50 0 62 c1 44 5 61 14 60 6 -2 11 0 10 5 -3 14 22 62 32 62 12 0 12 2 1
-38 -6 -20 -6 -32 0 -32 9 0 13 14 10 38 -1 6 3 12 9 12 5 0 10 12 10 28 0 20
-3 23 -10 12 -5 -8 -12 -12 -15 -8 -6 6 73 67 88 68 4 0 7 -16 7 -35z m-2792
-75 c12 -22 22 -65 26 -115 3 -44 9 -93 12 -108 l6 -28 -51 20 c-98 39 -106
51 -70 104 20 31 20 31 -10 -3 l-30 -35 -1 27 c0 15 5 30 11 34 8 4 7 9 -2 14
-10 7 -10 12 -1 22 6 8 9 23 6 35 -8 28 30 71 61 69 16 -1 30 -12 43 -36z
m3127 -97 c4 -10 8 -35 9 -55 0 -20 7 -43 14 -50 6 -6 12 -16 12 -21 0 -5 18
-27 40 -48 22 -22 39 -42 38 -46 0 -5 2 -15 6 -25 4 -9 6 -29 4 -45 l-3 -28
-20 22 c-16 18 -29 21 -65 17 -30 -2 -40 -1 -30 6 12 8 12 10 -3 16 -10 4 -16
13 -13 20 3 8 2 14 -3 14 -9 0 -8 -3 -17 117 -7 91 -3 123 15 123 5 0 12 -8
16 -17z m321 -13 c-3 -19 -2 -29 4 -25 6 3 10 2 10 -4 0 -5 -5 -13 -11 -17 -8
-5 -8 -8 0 -13 8 -5 5 -13 -7 -25 -19 -16 -19 -16 -14 11 5 26 4 27 -12 11 -9
-10 -23 -15 -30 -12 -8 3 -17 0 -21 -5 -3 -6 -11 -9 -16 -6 -9 6 -13 -8 -10
-32 1 -7 -3 -13 -8 -13 -6 0 -8 -7 -4 -16 5 -13 8 -13 15 -2 8 10 9 10 5 -2
-2 -8 -10 -15 -18 -15 -8 0 -17 -4 -20 -9 -8 -10 -65 52 -61 66 1 5 -2 7 -7 3
-15 -9 -46 44 -33 57 5 5 55 12 109 15 102 5 123 13 123 44 0 11 3 19 6 19 4
0 4 -14 0 -30z m-601 -48 c-2 -9 -4 -24 -4 -32 -1 -9 -15 -31 -32 -49 -17 -19
-42 -52 -56 -73 -14 -21 -30 -38 -35 -38 -5 0 -7 -3 -5 -7 5 -8 -10 -26 -28
-34 -5 -2 -9 -8 -7 -12 1 -5 -3 -5 -9 -2 -8 5 -8 10 0 18 18 18 13 29 -8 18
-16 -9 -18 -8 -14 9 3 11 10 20 15 20 5 0 6 -6 2 -12 -4 -7 -4 -10 1 -6 4 4
14 3 22 -4 11 -8 12 -7 7 5 -4 12 2 20 20 27 14 5 26 12 26 15 0 4 -5 3 -11
-1 -20 -12 13 40 40 63 14 12 23 24 20 27 -2 3 -21 -11 -41 -29 -24 -24 -38
-31 -42 -22 -3 6 -3 2 0 -11 6 -25 -12 -55 -28 -46 -5 3 -4 12 3 20 6 8 9 17
6 20 -3 3 -17 -12 -31 -33 -14 -20 -26 -32 -26 -24 0 7 9 24 20 38 11 14 17
29 14 34 -7 12 -24 1 -24 -15 0 -8 -6 -19 -14 -25 -12 -10 -13 -8 -9 11 3 13
17 33 31 45 23 19 27 20 37 6 10 -13 14 -11 32 17 23 36 113 111 124 104 4 -2
6 -12 4 -22z m-1509 -101 c5 -5 30 -16 56 -25 25 -8 73 -32 105 -53 32 -21 65
-42 74 -48 9 -5 36 -23 59 -40 24 -16 58 -39 76 -50 107 -66 164 -115 134
-115 -5 0 -42 -15 -82 -34 -83 -39 -154 -60 -169 -51 -5 4 -15 2 -22 -3 -28
-23 -291 -35 -428 -20 -133 15 -265 56 -330 102 -21 14 -21 15 14 38 139 93
179 118 186 118 5 0 14 6 20 14 16 19 163 116 226 150 54 28 66 31 81 17z
m1504 -31 c9 0 6 -33 -5 -50 -4 -6 -11 -7 -17 -4 -7 4 -8 2 -4 -4 7 -12 -23
-54 -34 -47 -3 2 -7 -5 -7 -16 -2 -20 12 -26 20 -9 3 6 4 5 3 -2 -2 -7 -9 -14
-17 -14 -8 -1 -19 -2 -26 -3 -6 0 -14 -9 -17 -19 -3 -10 -21 -34 -39 -53 -17
-20 -44 -49 -58 -65 -34 -37 -183 -180 -231 -221 -25 -21 -44 -30 -57 -26 -12
3 -21 9 -21 13 0 13 67 60 75 52 5 -4 5 -2 2 4 -4 7 0 17 8 24 8 7 15 9 15 5
0 -4 13 9 30 30 16 21 54 63 82 95 29 31 62 68 72 81 11 13 40 49 65 79 26 30
64 79 86 108 24 32 45 50 53 47 8 -3 18 -5 22 -5z m-2862 -180 c13 -14 46 -49
74 -77 l51 -53 -19 -22 c-19 -23 -19 -23 1 -6 19 16 23 14 84 -42 35 -33 68
-57 74 -53 6 3 7 2 4 -4 -3 -5 7 -17 24 -27 16 -9 29 -20 29 -24 0 -4 15 -16
34 -26 45 -24 50 -39 21 -66 -22 -21 -24 -21 -52 -4 -15 10 -38 27 -50 38 -13
11 -23 16 -23 12 0 -5 -15 9 -34 30 -22 25 -38 35 -49 31 -9 -3 -16 -2 -14 3
1 5 -26 38 -60 74 -35 35 -63 68 -63 74 0 5 -7 13 -16 16 -10 4 -13 13 -9 25
5 15 2 18 -13 14 -23 -5 -38 23 -22 42 8 9 4 11 -17 7 -22 -4 -25 -2 -20 12 4
10 3 15 -3 11 -14 -9 -12 9 3 24 10 11 8 11 -13 1 -22 -12 -24 -12 -12 2 19
23 64 17 90 -12z m2888 -45 c-11 -8 -17 -18 -13 -21 4 -4 14 -1 24 7 15 12 16
12 8 -1 -6 -8 -10 -18 -10 -22 0 -4 -8 -17 -17 -28 -23 -26 -22 -38 1 -74 15
-22 20 -25 23 -12 2 14 5 13 16 -5 9 -15 10 -19 1 -14 -7 5 -10 3 -7 -5 3 -9
22 -13 56 -13 45 1 52 -2 52 -19 0 -10 -4 -17 -8 -14 -4 2 -8 -4 -8 -15 0 -12
7 -19 18 -19 10 0 18 -5 18 -11 0 -6 -6 -9 -13 -6 -8 3 -20 1 -28 -5 -11 -8
-10 -9 4 -4 20 6 22 -5 5 -22 -7 -7 -8 -12 -3 -12 5 0 28 20 51 45 28 32 46
43 58 39 14 -5 12 -11 -14 -37 -16 -16 -27 -34 -24 -39 3 -5 0 -7 -8 -6 -7 2
-12 -3 -10 -11 4 -18 -47 -71 -62 -65 -6 2 -17 -5 -24 -16 -12 -20 -12 -21 10
-9 23 12 23 12 4 -10 -11 -11 -26 -20 -35 -19 -9 2 -15 -3 -13 -10 1 -9 -5
-11 -23 -6 -21 5 -25 3 -24 -17 0 -19 2 -20 7 -7 4 11 12 14 20 9 9 -6 7 -12
-9 -27 -12 -10 -24 -18 -28 -16 -3 1 -6 -4 -6 -10 0 -7 -10 -12 -23 -12 -21 1
-26 -6 -23 -33 1 -7 -5 -13 -14 -13 -8 0 -15 -4 -15 -8 0 -5 -15 -7 -32 -5
-26 4 -30 2 -18 -6 13 -9 12 -12 -7 -17 -13 -4 -21 -10 -18 -14 3 -4 -2 -11
-11 -14 -8 -3 -12 -11 -8 -17 5 -8 1 -8 -14 0 -14 8 -19 17 -15 29 6 15 5 16
-13 2 -12 -9 -15 -9 -7 -1 6 7 9 20 6 27 -3 8 0 14 7 14 9 0 9 4 -1 17 -13 15
-12 15 8 2 14 -8 18 -16 12 -20 -13 -8 -2 -49 12 -49 5 0 9 6 7 14 -2 7 15 32
37 55 39 40 40 41 55 21 15 -20 16 -20 16 -1 0 11 -3 19 -6 19 -18 -1 -21 4
-10 17 20 24 4 29 -18 7 -11 -11 -24 -17 -28 -14 -4 4 -4 2 -1 -4 4 -7 0 -17
-8 -24 -11 -9 -15 -9 -15 -1 0 7 -5 9 -10 6 -6 -4 -8 -10 -6 -14 3 -4 -1 -8
-9 -8 -11 0 -11 4 1 22 8 12 11 25 7 28 -3 4 -1 7 5 7 7 0 12 7 12 15 0 13 -4
14 -20 5 -11 -6 -20 -8 -20 -4 0 3 -8 0 -17 -7 -11 -9 -14 -10 -9 -2 4 7 9 34
12 60 3 27 7 59 10 71 3 17 1 23 -8 20 -7 -3 -14 -22 -15 -46 -1 -22 -7 -51
-13 -63 -8 -15 -9 -19 -1 -15 6 4 11 4 11 -1 0 -13 -14 -30 -30 -36 -9 -3 -6
-6 10 -6 l24 -1 -22 -16 c-13 -9 -26 -13 -29 -10 -4 3 -1 6 7 6 10 0 10 3 0
15 -7 8 -9 15 -6 15 4 0 2 10 -5 21 -8 15 -13 18 -19 10 -5 -10 -9 -9 -13 2
-4 10 2 14 21 13 21 -1 26 3 24 18 -2 10 1 15 7 12 5 -4 13 -2 16 4 4 6 1 9
-5 8 -7 -2 -14 4 -15 12 -2 8 -6 23 -10 33 -4 10 -3 17 5 17 6 0 8 5 4 11 -5
9 1 10 20 5 30 -7 36 9 6 19 -15 5 -33 -5 -71 -39 -28 -25 -56 -46 -63 -46 -6
0 -4 5 4 10 13 8 13 10 -1 10 -9 0 -20 8 -24 17 -4 13 12 35 67 86 40 37 99
92 131 122 32 30 55 49 51 42 -4 -7 2 -4 14 7 12 10 19 23 15 29 -3 5 -2 7 4
4 6 -4 24 11 42 33 42 53 40 63 -4 14 l-35 -39 27 43 c18 28 32 41 42 37 9 -2
23 0 31 5 23 15 27 11 6 -5z m-2922 -89 c-9 -31 -12 -31 -35 -10 l-22 19 16
-26 c10 -14 14 -29 10 -33 -5 -4 -1 -6 7 -4 8 2 22 12 31 23 14 16 19 17 32 7
16 -13 17 -28 4 -49 -11 -18 8 -16 22 1 10 12 19 7 54 -32 23 -25 54 -57 69
-69 27 -24 31 -54 9 -61 -13 -4 -53 32 -45 42 2 3 1 4 -3 1 -3 -3 -13 1 -22 7
-9 7 -4 -1 10 -17 15 -17 32 -40 38 -53 12 -22 38 -26 34 -4 -1 5 7 18 17 27
19 17 21 17 40 0 11 -10 20 -24 20 -32 0 -20 -28 -27 -46 -13 -21 18 -43 -3
-23 -22 35 -32 80 -58 91 -52 6 4 -3 -13 -19 -37 -38 -55 -85 -189 -85 -240 0
-20 -5 -45 -12 -54 -12 -16 -14 -15 -40 8 -15 14 -33 24 -40 21 -14 -5 -92 54
-89 67 2 4 -4 6 -12 3 -13 -5 -20 6 -16 28 0 4 -7 4 -16 1 -10 -4 -14 -2 -9 5
3 6 1 14 -5 18 -8 5 -9 3 -4 -6 6 -10 4 -12 -10 -6 -14 5 -16 4 -7 -7 9 -10 8
-18 -2 -33 -14 -18 -15 -18 -35 0 -27 25 -27 40 1 53 l23 10 -25 13 c-22 12
-24 11 -13 -2 11 -12 9 -17 -11 -26 -13 -6 -27 -7 -32 -3 -5 4 10 -13 34 -37
40 -41 42 -45 28 -61 -9 -10 -16 -21 -16 -25 0 -5 9 2 19 15 19 23 21 23 37 7
17 -17 17 -18 -1 -38 -15 -17 -16 -20 -3 -20 9 0 19 7 22 16 4 9 9 14 13 11 3
-4 -2 -18 -11 -31 -20 -31 -20 -37 -1 -29 10 3 15 0 13 -8 -2 -8 3 -13 10 -11
6 1 12 -2 12 -6 0 -18 -12 -20 -30 -4 -35 32 -49 42 -58 42 -5 0 -20 10 -34
23 -13 12 -38 33 -54 46 -36 28 -142 129 -171 165 -29 33 -29 47 1 75 26 25
48 12 25 -15 -11 -13 -9 -14 14 -3 22 10 25 15 15 27 -10 11 -8 17 7 28 17 13
22 12 39 -5 19 -20 19 -20 -5 -40 -17 -14 -21 -23 -13 -31 8 -8 17 -6 35 9 22
18 25 18 42 4 16 -15 16 -17 0 -35 -15 -17 -17 -17 -35 -2 -10 10 -18 13 -18
8 0 -11 37 -44 49 -44 5 0 14 7 21 15 7 9 20 13 30 10 10 -3 17 0 17 9 0 9 -4
13 -9 10 -4 -3 -8 0 -8 5 0 6 -6 11 -13 11 -13 0 -43 40 -39 53 1 4 -1 6 -5 5
-10 -3 -56 22 -51 28 3 2 -17 27 -43 55 -27 29 -46 56 -43 61 3 4 -2 8 -11 8
-9 0 -13 5 -10 10 3 6 1 10 -5 10 -6 0 -8 5 -5 10 3 6 1 10 -6 10 -7 0 -5 8 6
20 18 20 41 28 30 10 -3 -6 1 -7 9 -4 9 3 16 1 16 -5 0 -6 7 -11 16 -11 8 0
12 -5 9 -10 -9 -15 14 -40 35 -40 30 0 33 29 4 40 -25 10 -25 17 -1 48 8 11
12 11 18 0 11 -17 58 31 51 52 -3 8 7 2 21 -14 23 -25 28 -26 33 -11 5 13 9
14 15 3 6 -9 9 -10 9 -1 0 8 7 10 18 6 15 -6 15 -5 3 10 -11 14 -11 20 0 34
11 12 11 17 2 20 -17 6 1 50 30 73 27 22 51 8 41 -24z m1788 -64 c-9 -7 -10
-15 -3 -35 9 -23 2 -36 -12 -24 -2 1 -14 -5 -27 -14 -28 -18 -68 -29 -122 -35
-21 -2 -50 -6 -65 -9 -16 -4 -46 -9 -67 -12 -22 -3 -51 -12 -65 -20 -22 -11
-28 -11 -37 2 -6 8 -23 13 -39 11 -16 -2 -40 3 -54 10 -14 8 -32 14 -40 14
-11 0 -11 3 0 18 11 14 10 13 -9 -2 -21 -18 -22 -18 -22 -1 0 18 -1 18 -15 -1
-9 -12 -14 -14 -15 -6 0 7 -5 10 -11 6 -8 -4 -9 1 -4 17 10 32 10 32 34 19 16
-8 21 -8 21 1 0 9 3 9 14 0 8 -6 28 -9 45 -6 20 3 31 1 31 -6 0 -8 4 -8 13 -2
6 5 32 11 56 12 25 1 48 4 52 7 5 3 36 7 71 10 35 2 87 10 116 16 28 6 55 9
58 5 3 -3 24 3 47 14 42 19 73 26 49 11z m132 -114 c-3 -13 -12 -30 -19 -38
-14 -17 -28 -55 -30 -84 -2 -16 2 -15 19 7 12 15 28 27 36 27 9 0 7 -7 -8 -23
-38 -41 -24 -48 26 -13 123 87 218 110 359 86 67 -12 143 -47 173 -79 3 -4 12
-6 20 -6 8 0 14 -8 14 -17 -1 -10 1 -16 5 -13 11 6 80 -72 92 -103 7 -18 6
-28 -2 -36 -9 -8 -10 -8 -5 2 4 6 2 12 -4 12 -6 0 -9 3 -7 8 3 4 0 20 -7 37
-10 25 -13 26 -19 12 -4 -11 -3 -16 3 -12 6 3 10 0 10 -9 0 -24 -24 -13 -68
32 -23 23 -46 42 -52 42 -6 0 -9 4 -6 8 3 5 -15 18 -40 30 -48 24 -69 28 -59
12 3 -5 13 -10 21 -10 8 0 20 -5 27 -10 7 -6 32 -25 57 -44 47 -34 108 -135
95 -155 -3 -6 -2 -11 3 -11 5 0 12 -11 14 -25 3 -16 1 -22 -6 -18 -6 4 -4 -2
5 -13 16 -20 18 -132 2 -143 -4 -3 -8 -20 -9 -37 -1 -32 -41 -125 -69 -159
-14 -17 -16 -18 -11 -2 4 11 2 16 -5 12 -5 -4 -7 -16 -3 -27 5 -17 3 -20 -12
-14 -10 4 -15 4 -11 0 8 -9 -63 -75 -75 -68 -4 3 -8 1 -8 -4 0 -12 -78 -34
-92 -26 -7 4 -8 3 -4 -4 9 -14 -96 -8 -164 10 -98 25 -193 123 -230 236 -22
67 -40 170 -33 192 3 11 1 10 -10 -3 -11 -14 -16 -15 -20 -5 -4 10 -6 10 -6 0
-1 -7 6 -15 14 -18 11 -4 12 -11 5 -24 -5 -9 -7 -20 -4 -23 10 -10 13 -78 3
-72 -5 4 -9 2 -9 -3 0 -5 -7 -9 -15 -9 -11 0 -12 4 -4 14 8 9 8 13 0 13 -6 0
-11 5 -11 11 0 6 9 9 19 6 14 -3 18 -1 14 9 -3 8 -9 14 -13 14 -4 0 -6 11 -5
25 2 14 0 25 -4 25 -4 0 -6 14 -5 30 1 17 -3 30 -9 30 -8 0 -8 3 -2 8 11 7 16
52 7 52 -3 0 -16 -9 -28 -21 l-22 -21 2 25 c0 14 5 23 9 20 12 -7 37 17 37 36
0 12 -2 13 -8 3 -5 -7 -24 -14 -43 -17 -61 -8 -134 -27 -158 -42 -13 -8 -21
-11 -17 -5 3 6 -32 9 -97 8 -56 -2 -126 2 -156 7 -29 4 -61 9 -71 10 -15 1
-16 5 -9 19 12 22 21 24 12 2 -6 -15 -4 -15 18 -1 19 11 61 15 188 16 90 1
167 4 172 6 4 3 34 8 66 11 32 3 62 10 67 15 10 9 -9 13 -52 9 -25 -2 -192 77
-192 91 0 4 -6 6 -12 4 -18 -7 -42 11 -34 24 5 8 16 6 37 -4 36 -19 37 -13 3
18 l-25 24 30 31 c23 26 39 33 83 38 29 3 64 5 78 5 38 -2 90 -21 90 -34 0 -7
4 -6 10 3 6 9 10 11 10 3 0 -7 7 -10 16 -6 15 5 15 4 -1 -20 -10 -17 -22 -24
-33 -20 -10 3 -13 1 -7 -4 12 -10 16 -45 4 -38 -4 3 -24 -11 -43 -32 l-35 -38
-31 18 c-17 11 -34 16 -37 13 -7 -7 -9 -5 42 -32 70 -37 91 -38 111 -5 10 17
22 27 28 24 6 -3 5 0 -1 7 -11 11 -17 10 -36 -8 -40 -38 -53 -25 -16 16 20 20
54 62 77 92 23 30 54 72 69 92 32 42 48 49 37 16z m-1338 -40 c5 -8 -19 -38
-31 -38 -12 0 -140 -87 -158 -108 -29 -31 -11 -67 27 -56 14 5 16 3 11 -7 -5
-8 -4 -11 1 -6 5 5 9 13 9 19 0 6 10 14 23 19 19 7 22 5 22 -14 0 -16 -3 -19
-9 -8 -7 11 -11 10 -20 -7 -16 -29 -14 -37 6 -21 15 12 16 12 10 -3 -7 -19 18
-38 48 -38 9 0 23 -6 30 -14 12 -12 7 -18 -30 -42 -25 -15 -45 -32 -45 -38 0
-5 8 -2 18 7 9 8 31 21 47 27 l30 11 -28 -29 c-15 -15 -24 -32 -20 -37 5 -4 3
-5 -3 -2 -6 4 -19 -2 -29 -13 -21 -23 -41 -26 -48 -7 -3 6 -6 0 -6 -14 -1 -40
41 -65 87 -51 20 6 38 9 41 6 10 -10 4 -146 -7 -153 -5 -3 -12 -17 -15 -31 -3
-18 -5 -15 -6 13 -1 25 3 36 10 32 6 -4 5 3 -3 14 -8 13 -20 20 -30 17 -13 -3
-21 6 -30 35 -7 26 -16 38 -25 35 -7 -3 -13 -1 -13 4 0 22 -53 9 -80 -20 -35
-38 -42 -71 -19 -99 16 -19 25 -21 61 -16 38 5 47 3 76 -24 18 -17 30 -35 27
-41 -10 -16 -28 -12 -21 5 4 12 0 14 -18 11 -44 -8 -66 -26 -67 -54 -1 -17 -3
-21 -6 -9 -2 9 -9 15 -14 12 -5 -4 -9 1 -9 9 0 9 -3 16 -7 16 -24 0 -65 160
-62 240 3 71 7 82 30 75 29 -10 24 29 -6 49 -25 17 -26 17 -41 -21 -10 -22
-14 -52 -11 -74 3 -21 1 -41 -5 -47 -5 -5 -5 -19 3 -35 15 -33 4 -77 -20 -77
-10 0 -18 6 -18 13 -1 6 -6 35 -11 63 -6 29 -7 65 -3 87 5 20 7 38 4 41 -8 8
27 118 58 182 30 63 77 114 139 151 19 11 41 18 48 16 6 -3 12 2 12 10 0 26
30 47 62 45 16 -1 32 -6 34 -10z m662 -53 c90 -46 90 -45 33 -93 -38 -32 -54
-40 -63 -32 -7 5 -25 20 -41 31 -15 11 -25 25 -22 30 4 5 2 9 -4 9 -6 0 -8 7
-5 15 4 8 10 13 14 10 4 -3 13 2 20 10 10 13 9 15 -11 15 l-22 0 24 26 c13 14
25 20 27 14 2 -6 25 -21 50 -35z m-453 -205 c0 -8 -7 -14 -16 -14 -9 1 -17 -5
-18 -12 -4 -26 -4 -79 1 -94 3 -8 9 -30 13 -47 8 -35 26 -47 20 -13 -4 22 5
26 22 9 8 -8 7 -16 -5 -28 -15 -16 -19 -16 -34 -3 -9 7 -14 20 -12 27 3 7 0
16 -7 21 -8 4 -10 3 -5 -4 4 -6 -3 -21 -15 -33 -15 -15 -19 -28 -14 -47 4 -15
3 -24 0 -20 -10 10 -61 -18 -68 -37 -4 -8 -13 -15 -22 -15 -14 0 -19 -11 -16
-35 1 -5 -6 -1 -14 10 -12 15 -15 32 -10 65 4 25 10 48 14 52 4 4 30 9 59 10
29 1 52 6 52 11 0 4 -5 5 -11 1 -8 -4 -7 0 1 15 6 12 15 19 20 16 10 -6 5 16
-12 52 -6 12 -28 34 -50 48 -21 14 -38 30 -38 35 0 5 19 14 43 20 23 6 53 15
67 20 34 11 55 8 55 -10z m-1565 -100 c-43 -54 -49 -105 -20 -164 13 -28 28
-46 39 -46 9 0 21 -4 27 -10 5 -5 32 -12 59 -16 28 -3 61 -8 75 -11 l25 -6
-25 -7 c-19 -5 -10 -8 39 -14 41 -5 66 -4 70 3 8 13 62 18 80 7 11 -7 11 -10
0 -17 -8 -5 -9 -9 -3 -9 6 0 11 -6 11 -13 0 -10 -9 -11 -45 -2 -40 11 -47 10
-66 -9 l-21 -21 34 -8 c56 -12 50 -20 -11 -15 -74 6 -76 -7 -3 -17 30 -3 55
-10 55 -15 0 -14 -23 -17 -57 -9 -18 4 -33 3 -33 -2 0 -4 16 -11 35 -15 42 -8
46 -21 8 -27 -27 -4 -27 -4 -6 -12 13 -4 20 -11 18 -16 -3 -4 -12 -6 -20 -2
-8 3 -15 0 -15 -6 0 -6 10 -11 21 -11 18 0 19 -2 9 -15 -7 -8 -16 -13 -20 -10
-5 3 -11 1 -15 -5 -3 -6 4 -10 17 -10 l23 -1 -25 -14 -25 -15 23 -6 c31 -9 28
-24 -5 -25 -27 -1 -26 -2 10 -17 26 -10 36 -20 32 -30 -3 -8 3 -21 12 -28 16
-12 15 -13 -12 -14 l-30 -2 35 -12 c19 -8 38 -11 42 -9 4 2 5 -3 1 -12 -3 -10
-8 -13 -12 -6 -4 6 -12 7 -21 1 -17 -10 -7 -16 44 -24 36 -6 47 -16 18 -16
-33 0 -26 -20 8 -26 17 -4 30 -11 30 -16 0 -5 4 -6 10 -3 5 3 20 -1 32 -10 21
-15 21 -16 3 -11 -53 14 -75 18 -75 12 0 -7 47 -28 65 -30 6 -1 10 -5 10 -11
0 -5 -4 -8 -10 -6 -5 2 -21 6 -35 8 -20 3 -18 0 13 -17 36 -20 51 -38 23 -27
-7 3 -18 1 -24 -5 -8 -8 -15 -8 -24 -1 -22 16 -137 56 -176 60 -109 11 -145
21 -138 39 3 7 1 16 -5 19 -16 11 1 25 29 25 23 1 25 2 9 11 -9 5 -21 8 -26 4
-5 -3 -22 0 -38 6 -15 6 -29 9 -30 7 -4 -6 -32 37 -33 50 0 10 9 12 33 8 l32
-6 -32 15 c-28 13 -31 18 -24 37 5 13 13 22 18 22 4 -1 24 -4 43 -7 l35 -6
-38 18 c-21 10 -38 22 -37 27 1 5 6 8 11 6 5 -1 9 2 9 8 0 5 -4 10 -10 10 -5
0 -10 7 -10 15 0 8 8 15 18 15 16 1 16 1 0 11 -21 12 -24 39 -5 39 8 0 8 3 -2
9 -12 8 -12 13 -3 24 10 12 9 16 -5 22 -17 6 -17 7 0 20 16 12 16 13 -8 19
-35 9 -31 26 7 26 40 0 32 9 -11 12 -41 3 -59 22 -34 38 15 9 15 11 1 6 -9 -2
-19 2 -22 10 -3 8 -12 14 -20 14 -13 0 -39 58 -30 69 6 7 64 -41 59 -50 -13
-21 7 -28 30 -12 32 23 31 31 -2 35 -34 4 -73 59 -73 102 1 46 33 109 71 139
19 15 36 27 37 27 2 0 -11 -18 -28 -40z m2370 -19 c0 -6 -4 -13 -10 -16 -24
-15 -6 -21 53 -19 34 2 72 6 85 9 20 5 22 2 22 -30 0 -19 -4 -36 -10 -36 -5
-1 -14 -2 -19 -3 -23 -3 -21 -16 2 -16 26 0 28 -5 27 -45 0 -3 7 -19 16 -37
21 -40 25 -105 7 -105 -9 0 -11 7 -7 21 6 19 5 20 -11 6 -17 -14 -17 -13 -11
10 6 23 6 23 -7 8 -8 -10 -19 -18 -25 -18 -6 0 -12 -10 -14 -22 -3 -19 -9 -22
-45 -21 -25 1 -47 -4 -53 -12 -10 -12 -4 -14 32 -11 24 1 60 -1 80 -5 21 -3
35 -2 32 2 -8 14 9 10 30 -6 26 -20 43 -19 50 3 3 10 4 6 3 -8 -2 -19 3 -25
17 -23 35 3 0 -18 -39 -23 -21 -2 -56 -9 -79 -14 -58 -13 -129 -13 -120 1 3 6
-5 4 -19 -5 -20 -13 -26 -14 -30 -4 -3 10 -7 10 -17 1 -7 -7 -21 -9 -34 -4
-11 4 -46 6 -76 5 -31 -1 -58 4 -62 10 -6 8 -11 6 -18 -4 -7 -12 -10 -12 -10
-1 0 7 -6 11 -15 7 -8 -3 -15 -2 -15 2 0 4 -60 7 -133 7 -72 0 -141 4 -152 9
-11 5 -36 10 -55 12 -65 7 -70 8 -70 16 0 4 9 8 19 8 11 0 27 7 35 16 19 18
21 11 5 -18 -9 -16 -8 -19 3 -16 7 2 21 21 31 41 17 37 29 49 25 25 -2 -7 -7
-16 -13 -20 -15 -11 17 -9 34 1 12 8 13 12 1 25 -11 14 -10 16 4 10 9 -4 16
-3 15 2 -5 27 4 34 39 33 38 -1 37 -3 -11 -13 -15 -4 -25 -11 -22 -17 4 -5 16
-7 28 -4 19 5 20 5 5 -5 -19 -12 -25 -40 -8 -40 6 0 10 6 10 13 0 8 10 13 23
13 14 -1 22 5 21 14 -1 9 7 16 17 16 11 0 19 -4 19 -8 0 -21 27 -4 42 26 16
33 16 34 -5 41 -18 5 -19 8 -7 13 8 4 15 17 14 29 -1 15 3 20 13 16 9 -4 16 2
20 16 3 11 9 18 14 15 5 -3 6 2 3 11 -5 13 -15 15 -45 10 -21 -4 -44 -3 -51 1
-29 18 -48 11 -46 -15 3 -29 24 -50 51 -51 9 0 17 -4 17 -10 0 -5 -13 -8 -29
-7 -30 2 -44 22 -42 57 0 10 -1 11 -5 2 -3 -6 -10 -10 -15 -6 -5 3 -9 0 -9 -5
0 -6 4 -11 9 -11 13 0 20 -25 14 -48 -5 -19 -6 -19 -24 -4 -25 22 -59 25 -52
5 4 -11 8 -12 13 -3 6 9 14 6 31 -11 l24 -24 -24 -3 c-14 -2 -36 -11 -50 -20
-23 -16 -25 -16 -19 -1 4 9 1 22 -5 28 -6 6 -7 14 -3 18 4 4 11 1 16 -7 13
-20 12 -8 0 24 -6 17 -6 26 0 26 6 0 10 5 10 11 0 5 -4 7 -10 4 -16 -10 -11
22 6 39 18 18 34 21 34 6 0 -5 -7 -10 -15 -10 -17 0 -19 -18 -5 -40 8 -12 10
-13 10 -1 0 10 8 7 25 -9 23 -21 37 -17 16 5 -5 6 -12 20 -16 33 -5 18 -2 22
14 22 25 0 28 20 4 21 -10 1 -22 1 -26 0 -4 -1 -17 5 -28 12 -19 14 -19 14 1
32 16 15 22 16 35 5 13 -11 14 -10 10 2 -5 13 1 14 42 7 26 -5 53 -7 59 -5 7
3 15 2 19 -2 7 -7 323 -11 342 -4 9 3 10 9 3 22 -5 9 -6 20 -3 24 10 10 43 7
43 -3z m1590 -400 c8 -15 8 -21 1 -17 -6 4 -11 3 -11 -2 0 -6 7 -12 15 -16 19
-7 19 -23 1 -58 -19 -36 -4 -36 22 -1 l20 28 -5 -30 c-9 -48 -51 -96 -77 -89
-18 4 -28 -2 -47 -30 -14 -21 -35 -38 -53 -42 -15 -3 -37 -15 -48 -26 -17 -17
-19 -17 -16 -2 2 9 -3 19 -10 21 -7 3 -12 1 -11 -4 3 -20 -2 -25 -16 -13 -13
11 -14 10 -8 -5 5 -14 3 -17 -10 -12 -9 3 -19 2 -22 -3 -9 -15 -25 -12 -19 4
3 7 -2 16 -11 20 -9 3 -14 2 -11 -3 3 -5 -1 -11 -8 -14 -8 -3 -17 -1 -20 6 -4
7 -4 2 -2 -10 3 -19 0 -23 -22 -23 -22 0 -27 5 -29 26 0 14 -6 31 -13 38 -9 8
-10 4 -5 -16 5 -19 3 -28 -5 -28 -6 0 -8 5 -5 10 12 19 -7 10 -25 -12 -16 -20
-21 -21 -32 -9 -9 10 -9 12 0 7 6 -4 12 -3 12 3 0 6 -12 14 -27 17 -16 4 -39
15 -52 26 -14 11 -28 15 -35 10 -17 -14 -62 -7 -81 12 -9 9 -21 14 -26 11 -5
-4 -9 -1 -9 5 0 7 11 9 28 6 54 -11 61 -11 61 -1 0 6 -7 9 -16 7 -11 -3 -14 2
-10 17 2 11 0 22 -7 25 -6 3 5 3 24 -1 19 -3 44 -6 55 -8 11 -1 21 -4 23 -5 1
-1 7 -4 12 -5 6 -1 11 -3 13 -4 3 -4 56 -10 140 -19 156 -16 268 14 326 87 27
33 31 47 31 97 0 31 2 55 4 53 2 -2 9 -15 16 -28z m-1410 -65 c14 -2 70 -7
125 -11 55 -5 103 -10 108 -11 4 -1 13 -2 20 -3 9 -1 9 -3 -2 -10 -7 -5 -29
-5 -50 0 -21 5 -40 4 -45 -1 -7 -7 -1 -10 15 -11 51 -1 116 -11 168 -25 65
-16 74 -17 66 -5 -3 5 -30 15 -60 21 -55 11 -77 32 -30 28 14 -1 25 -5 25 -9
0 -4 17 -5 38 -4 20 2 47 -3 59 -11 17 -10 23 -11 27 -1 5 9 7 9 12 0 3 -7 12
-13 20 -13 8 0 17 -7 21 -16 5 -13 7 -13 14 -2 6 9 9 9 9 1 0 -7 -7 -16 -16
-21 -14 -8 -14 -11 -3 -18 8 -5 19 -9 24 -9 34 -2 74 -18 68 -28 -4 -6 0 -8
10 -4 10 3 17 2 17 -3 0 -6 5 -10 11 -10 5 0 8 4 5 9 -4 5 3 7 14 4 11 -3 17
-10 14 -15 -4 -6 2 -8 15 -3 11 3 21 2 21 -3 0 -5 8 -9 18 -8 11 1 16 -6 16
-17 -2 -18 -1 -18 19 0 11 10 18 14 16 8 -3 -5 5 -21 18 -34 14 -15 23 -19 23
-11 0 10 3 11 11 3 6 -6 18 -9 27 -6 11 5 13 2 7 -6 -6 -10 -3 -11 14 -2 17
10 22 9 27 -3 5 -14 9 -14 37 0 28 15 32 15 42 0 7 -8 15 -13 18 -10 8 9 57
-4 57 -15 0 -5 -8 -8 -17 -7 -12 0 -18 -6 -19 -19 -1 -11 -2 -30 -3 -41 0 -12
-10 -24 -21 -27 -11 -3 -20 -11 -19 -19 0 -8 2 -9 5 -2 3 6 16 9 30 6 23 -4
25 -2 19 18 -5 16 -4 21 6 18 8 -3 13 -16 11 -29 -2 -22 -1 -21 11 5 11 26 14
27 26 12 12 -14 11 -16 -4 -16 -11 0 -15 -5 -12 -14 6 -16 -37 -28 -51 -14
-10 10 -42 0 -42 -12 0 -4 7 -11 16 -14 12 -4 15 -2 10 9 -3 8 -1 15 4 15 6 0
10 -7 10 -16 0 -14 3 -14 16 -3 12 9 17 10 23 1 4 -6 31 -13 60 -16 28 -2 55
-7 59 -11 4 -4 3 -6 -3 -5 -28 6 -95 -1 -95 -10 0 -5 7 -10 15 -10 8 0 15 -4
15 -10 0 -5 5 -10 11 -10 5 0 7 5 4 10 -4 6 7 10 24 10 17 0 31 -5 31 -11 0
-6 -7 -9 -14 -6 -11 4 -13 1 -9 -10 5 -12 3 -14 -7 -8 -9 5 -11 4 -6 -4 4 -6
12 -9 17 -6 5 4 9 1 9 -5 0 -6 -8 -14 -17 -17 -10 -4 -22 -13 -26 -20 -5 -7
-12 -11 -18 -8 -5 4 -9 2 -9 -4 0 -5 6 -12 13 -15 6 -3 -15 -4 -47 -1 -56 4
-81 18 -69 38 3 5 9 4 13 -3 5 -8 9 -6 12 7 4 15 -1 18 -26 18 -22 0 -32 5
-34 19 -2 11 0 16 6 12 6 -3 13 -2 17 4 3 5 -3 10 -14 10 -12 0 -21 6 -21 14
0 21 -20 30 -33 17 -12 -12 -13 -16 -16 -46 0 -8 -8 -15 -17 -15 -11 0 -14 6
-8 23 4 12 9 24 13 27 16 13 8 30 -17 36 -15 3 -37 10 -50 15 -32 13 -42 11
-42 -5 0 -8 -4 -17 -8 -20 -5 -3 -7 8 -4 23 2 16 -1 32 -7 35 -6 4 -11 0 -11
-10 0 -14 -3 -14 -15 -4 -13 10 -19 10 -33 -4 -10 -9 -22 -14 -25 -11 -4 3 -5
2 -3 -1 2 -3 -6 -29 -19 -58 -36 -80 -42 -139 -17 -170 10 -14 21 -23 24 -21
3 3 5 -2 5 -10 0 -19 1 -19 -28 6 -13 11 -25 16 -27 10 -2 -7 -9 -5 -18 4 -9
9 -12 20 -7 27 17 27 30 77 22 85 -14 14 1 82 17 76 8 -3 15 5 19 24 4 15 11
38 16 51 5 13 9 24 9 25 0 1 -10 3 -22 4 -13 1 -38 5 -57 9 -30 6 -33 5 -27
-14 11 -32 -51 -209 -77 -224 l-22 -12 25 -7 c16 -4 4 -6 -32 -5 -31 0 -54 4
-51 9 5 8 1 9 -38 11 -15 1 -34 8 -43 15 -10 9 -16 10 -16 2 0 -12 -55 -9 -68
3 -4 4 -2 7 3 6 36 -8 40 0 42 76 1 49 8 85 18 100 8 13 15 33 15 45 0 28 -53
77 -82 75 -20 -1 -23 -6 -20 -38 2 -21 -3 -61 -11 -90 -8 -29 -18 -70 -21 -90
-4 -20 -12 -38 -19 -41 -9 -3 -9 -7 0 -19 10 -12 10 -15 -2 -15 -8 0 -12 4 -9
9 4 7 -16 12 -37 10 -10 -2 2 37 12 44 5 3 9 1 9 -4 0 -5 7 -9 15 -9 11 0 12
4 4 14 -9 10 -8 13 0 13 16 0 10 42 -6 48 -7 2 -13 -2 -13 -8 0 -6 -7 -18 -15
-26 -13 -14 -15 -13 -11 8 3 13 5 31 5 41 1 10 9 17 19 17 33 0 53 33 50 83
-2 25 -5 44 -7 42 -2 -3 -13 2 -25 10 -23 17 -66 20 -66 6 0 -5 4 -11 9 -13
13 -5 -13 -179 -33 -217 -15 -28 -15 -35 -4 -42 7 -5 8 -9 2 -9 -6 0 -21 9
-34 20 -13 11 -18 20 -11 20 7 0 9 5 6 10 -3 6 -2 10 3 10 5 0 12 13 14 30 3
21 0 30 -11 33 -9 3 -6 5 8 6 18 1 22 5 18 21 -3 11 -1 38 4 61 8 32 7 44 -3
51 -10 6 -10 10 2 17 8 6 11 13 8 17 -4 4 -3 15 2 24 7 14 5 19 -11 23 -16 4
-18 11 -13 31 11 44 -2 72 -38 82 -36 11 -68 8 -68 -7 0 -5 4 -9 9 -9 4 0 5
-19 0 -42 -4 -24 -8 -46 -9 -50 0 -5 16 -8 36 -8 25 0 33 -4 29 -12 -4 -7 0
-5 7 4 10 11 19 14 29 7 11 -7 11 -11 1 -17 -14 -9 -12 -53 2 -64 5 -3 2 -14
-7 -23 -20 -20 -21 -27 -4 -44 10 -10 9 -11 -5 -6 -13 5 -18 2 -18 -10 0 -9 4
-14 9 -10 5 3 13 0 17 -6 4 -7 3 -9 -3 -6 -12 8 -23 -14 -23 -44 0 -11 -4 -18
-10 -14 -5 3 -7 -12 -4 -39 5 -37 3 -44 -10 -42 -8 1 -19 5 -22 9 -11 10 -26
9 -20 -2 7 -10 -49 -7 -76 4 -10 4 -18 3 -18 -3 0 -5 -9 -12 -20 -15 -10 -3
-18 0 -17 5 1 6 -8 11 -20 13 -12 1 -19 -3 -16 -8 4 -6 -3 -8 -15 -5 -12 4
-22 3 -22 0 0 -9 -182 -9 -195 0 -5 3 -22 5 -37 3 -16 -2 -28 0 -28 5 0 5 -8
7 -17 5 -10 -2 -24 -4 -31 -4 -7 -1 -11 -4 -9 -8 3 -5 -9 -8 -26 -8 -18 -1
-46 -4 -64 -7 -26 -5 -31 -3 -26 9 4 11 2 14 -8 11 -8 -3 -23 -1 -34 5 -19 10
-19 9 -5 -8 8 -10 10 -16 4 -12 -7 4 -14 0 -18 -8 -9 -25 -50 -17 -74 14 -23
32 -43 136 -22 115 6 -6 14 -30 17 -53 4 -29 12 -45 27 -53 11 -6 25 -16 29
-22 6 -7 7 -5 4 6 -3 9 -1 19 6 22 9 5 9 7 -1 12 -6 3 -10 10 -6 15 3 5 0 8
-8 7 -8 -2 -14 9 -16 31 -2 19 -10 40 -17 48 -11 10 -12 19 -3 38 12 26 3 91
-14 101 -14 9 -75 7 -90 -2 -7 -5 -7 -9 1 -13 23 -15 44 -231 22 -231 -4 0
-21 37 -36 83 -66 192 -79 195 -81 15 -1 -77 -7 -134 -14 -149 -10 -20 -10
-22 1 -11 16 15 29 16 29 1 0 -5 -5 -7 -12 -3 -7 5 -9 2 -5 -8 8 -23 -2 -29
-27 -16 -11 6 -17 7 -13 2 4 -4 -14 -14 -40 -21 -64 -16 -73 -16 -74 5 0 13
-3 11 -9 -6 -6 -13 -29 -32 -52 -42 -45 -20 -86 -28 -59 -11 8 5 9 11 3 15
-12 7 -13 54 -1 62 9 5 -8 51 -28 74 -11 12 -13 10 -13 -15 0 -50 -16 -63 -28
-24 -19 60 -26 103 -26 154 -1 39 -4 49 -16 46 -8 -2 -27 -4 -42 -4 -21 0 -25
-4 -22 -20 2 -11 9 -24 16 -28 7 -5 25 -54 39 -111 24 -94 28 -103 50 -105 13
0 29 -1 35 -2 6 -1 11 -16 12 -33 0 -30 -1 -31 -9 -10 -5 14 -16 22 -26 20
-10 -1 -23 1 -30 5 -6 4 -14 3 -18 -3 -3 -5 -12 -10 -18 -10 -8 0 -7 3 2 9 10
7 11 18 5 47 -12 50 -34 57 -34 10 0 -20 -4 -36 -9 -36 -17 0 -66 180 -58 211
5 18 3 20 -21 14 -47 -12 -53 -23 -26 -50 13 -13 24 -30 24 -38 0 -7 10 -44
21 -81 14 -45 18 -71 11 -78 -10 -10 -35 29 -87 139 -27 58 -55 88 -55 60 0
-7 7 -50 15 -97 9 -47 16 -104 16 -127 1 -40 2 -42 21 -32 14 8 18 17 14 34
-3 13 -2 26 3 30 12 7 33 -29 23 -40 -8 -9 52 3 103 20 14 5 16 4 7 -2 -10 -8
-10 -12 2 -23 13 -10 17 -9 22 4 6 16 24 13 24 -5 0 -6 -5 -7 -12 -3 -7 5 -8
3 -4 -5 5 -7 15 -10 23 -7 8 3 12 2 9 -3 -3 -5 -19 -11 -35 -13 -18 -3 -28 0
-24 5 3 6 1 7 -5 3 -7 -4 -12 -13 -12 -19 0 -7 -9 -18 -21 -25 -12 -8 -18 -9
-14 -3 3 6 2 11 -3 11 -6 0 -12 -7 -16 -15 -3 -8 -10 -15 -17 -15 -6 0 -8 7
-5 16 5 13 2 15 -14 11 -22 -6 -28 8 -7 17 6 3 1 3 -13 0 -33 -8 -35 -11 -22
-27 15 -18 7 -25 -23 -20 -15 3 -22 10 -18 19 3 8 1 14 -5 14 -5 0 -13 -7 -16
-15 -4 -12 -10 -13 -24 -6 -14 8 -23 5 -36 -11 -15 -17 -20 -18 -27 -7 -7 11
-9 11 -9 -2 0 -9 -7 -19 -15 -23 -8 -3 -15 -10 -15 -16 0 -6 5 -8 12 -4 7 4 8
3 4 -5 -4 -6 -12 -8 -18 -5 -6 4 -14 0 -19 -7 -6 -10 -9 -11 -9 -1 0 6 -5 12
-11 12 -5 0 -7 -4 -4 -10 8 -13 -16 -13 -35 1 -13 9 -12 10 2 5 10 -3 20 -1
24 5 3 6 12 8 19 5 7 -2 18 1 24 7 20 20 12 26 -21 16 -65 -18 -175 -5 -123
15 8 3 15 0 16 -7 0 -9 2 -9 6 1 2 6 20 12 39 12 19 0 34 5 34 11 0 7 -16 8
-45 3 -48 -7 -99 1 -91 15 3 4 36 11 72 14 37 4 72 11 78 17 8 8 4 10 -14 6
-57 -11 -109 -16 -124 -10 -10 4 -15 17 -14 39 l1 32 60 2 c80 2 87 11 9 11
-44 0 -62 4 -62 13 0 9 12 11 40 9 25 -3 40 0 40 7 0 6 -19 11 -47 11 -38 0
-45 2 -34 12 6 7 16 14 22 14 5 1 21 3 37 4 22 2 20 4 -13 9 -26 4 -40 11 -40
21 0 11 12 14 50 12 28 -1 57 2 65 8 11 8 0 10 -41 6 -43 -3 -60 0 -80 15
l-24 19 50 1 50 1 -44 9 c-63 12 -71 27 -18 31 30 3 23 15 -11 20 -12 1 -22 8
-21 13 1 6 10 9 20 7 9 -2 21 2 25 9 4 7 3 9 -3 6 -15 -9 -73 12 -73 27 0 7
15 11 43 9 35 -3 38 -1 19 7 -12 5 -39 11 -59 13 -44 5 -57 27 -16 28 22 1 17
4 -22 14 -27 8 -51 19 -53 25 -8 22 -54 70 -68 70 -19 0 -18 17 3 28 11 7 26
4 47 -7 17 -10 45 -21 61 -25 27 -6 28 -5 13 7 -28 22 -21 27 30 21 43 -6 45
-5 28 8 -17 13 -11 15 65 22 116 9 163 15 239 31 79 16 107 15 121 -5 8 -12 9
-10 4 8 -6 20 -3 22 27 21 30 0 31 -1 11 -9 -33 -13 -28 -22 5 -9 15 6 28 10
30 10 17 -5 52 1 47 8 -9 15 12 23 99 36 44 8 108 18 141 24 102 17 131 20
217 26 46 3 108 8 138 10 30 2 107 7 170 11 63 3 117 9 120 11 5 5 489 -5 540
-11z"/>
<path d="M2900 4633 c-42 -13 -64 -31 -86 -69 -31 -52 -31 -95 0 -131 22 -26
26 -27 50 -14 29 16 34 31 11 31 -8 0 -15 4 -15 9 0 14 28 33 40 26 44 -27
-76 -255 -248 -470 -87 -107 -134 -156 -217 -225 -99 -81 -164 -113 -238 -116
-72 -3 -99 8 -95 39 2 18 10 22 41 22 42 0 46 11 18 46 l-19 24 -29 -25 -28
-25 24 27 c28 32 23 43 -25 58 -85 28 -197 -18 -234 -96 -47 -96 -7 -193 102
-247 149 -76 391 -4 534 157 58 67 69 72 185 90 l35 6 -6 -56 c-7 -66 -4 -117
13 -176 10 -33 21 -47 47 -61 42 -22 102 -17 132 9 41 38 59 114 37 157 -13
24 -59 77 -68 77 -4 0 -5 -20 -3 -45 3 -35 0 -46 -13 -51 -9 -4 -23 0 -32 8
-13 13 -13 29 -3 114 6 55 23 140 37 189 14 50 31 110 38 135 16 57 67 180
140 340 79 172 81 207 12 238 -27 12 -107 15 -137 5z"/>
<path d="M3051 4109 c-50 -15 -79 -37 -110 -83 -66 -99 -62 -189 15 -297 53
-73 84 -139 84 -176 0 -24 -11 -53 -49 -132 -17 -38 -20 -42 -79 -114 -44 -54
-179 -177 -226 -206 -17 -11 -55 -27 -83 -36 -49 -16 -55 -16 -78 -1 -31 21
-33 61 -4 113 27 49 57 81 92 99 24 13 28 13 34 -2 8 -21 -25 -84 -45 -84 -8
0 -12 6 -8 15 3 8 1 15 -3 15 -5 0 -14 -13 -19 -30 -9 -24 -7 -33 7 -51 22
-27 46 -20 95 27 48 47 63 72 70 116 5 34 -8 86 -23 90 -8 2 -50 6 -76 8 -109
9 -258 -146 -270 -280 -4 -49 -2 -55 29 -86 45 -45 75 -50 188 -31 170 29 348
134 497 293 87 93 114 148 113 230 -1 75 -23 122 -87 184 -70 68 -91 121 -74
185 12 41 71 95 105 95 42 0 53 -79 14 -100 -22 -12 -43 10 -34 34 3 9 1 16
-5 16 -19 0 -31 -37 -31 -94 0 -45 4 -58 22 -70 39 -28 73 -20 112 25 73 86
91 161 56 234 -40 82 -136 122 -229 94z"/>
<path d="M3480 3874 c-24 -48 -24 -50 -1 -30 18 17 24 14 20 -10 0 -3 7 -16
15 -30 9 -13 14 -24 11 -24 -4 0 1 -7 10 -16 16 -17 30 -12 30 9 0 7 11 14 25
15 23 3 20 -1 -22 -44 -26 -26 -51 -44 -55 -40 -4 4 0 12 10 17 22 13 22 29 0
29 -9 0 -13 -3 -10 -7 4 -3 2 -12 -4 -20 -9 -10 -7 -20 6 -40 18 -28 18 -28
-2 -10 -19 16 -20 16 -31 -8 -6 -14 -18 -25 -27 -25 -8 0 -15 -5 -15 -11 0 -5
5 -7 11 -3 6 3 3 -5 -6 -20 -20 -30 -27 -33 -19 -8 4 11 -1 9 -15 -8 l-21 -25
15 44 c20 59 19 68 -11 75 -35 9 -53 -8 -27 -25 22 -13 23 -7 -16 -128 -11
-36 -18 -68 -15 -73 8 -12 44 10 73 44 55 66 57 67 143 23 32 -16 60 -26 63
-23 4 3 1 43 -5 88 -12 91 -7 134 19 152 19 14 51 69 51 89 0 11 -16 10 -97
-7 -18 -3 -33 -2 -33 3 0 5 -13 24 -28 42 l-28 33 -14 -28z"/>
<path d="M3386 3424 c-32 -8 -84 -28 -115 -44 -61 -33 -160 -114 -150 -124 3
-4 26 5 50 18 96 52 98 49 39 -60 -54 -100 -62 -115 -142 -239 -24 -38 -47
-78 -51 -87 -5 -15 -20 -18 -94 -19 -48 -1 -106 -3 -128 -5 -22 -2 -65 -5 -95
-8 -141 -11 -325 -84 -395 -155 -38 -40 -38 -41 -15 -42 22 0 23 -1 6 -8 -11
-4 -21 -18 -23 -31 -2 -13 -6 -26 -8 -29 -3 -2 7 -18 22 -35 l28 -29 -31 21
c-28 19 -33 20 -52 6 -12 -8 -22 -12 -22 -7 -1 25 -20 -28 -21 -57 l-2 -35 -6
35 c-6 34 -7 34 -19 13 -19 -33 -14 -72 13 -118 27 -47 55 -60 119 -56 119 7
222 119 233 249 4 53 3 56 -11 38 -9 -11 -16 -25 -16 -32 0 -19 -68 -67 -85
-60 -19 7 -19 22 4 71 22 48 63 91 111 115 48 24 165 60 223 69 l47 8 0 -42
c0 -51 24 -77 73 -77 42 0 117 32 159 67 18 15 37 23 47 20 28 -8 231 -9 298
-1 92 12 159 55 196 127 26 50 27 60 18 95 -12 43 -66 108 -99 118 -31 10 -27
24 13 40 86 36 180 145 169 195 -24 98 -129 133 -288 95z m92 -107 c21 -16 14
-36 -25 -73 -36 -33 -159 -102 -167 -93 -6 6 75 173 88 181 14 9 87 -1 104
-15z m-166 -247 c65 -18 78 -78 28 -127 -31 -31 -82 -51 -157 -63 -35 -6 -43
-4 -43 8 0 27 103 192 120 192 8 0 32 -5 52 -10z"/>
<path d="M4560 4538 c-22 -11 -46 -30 -52 -42 l-11 -21 24 22 c32 29 78 45
107 38 33 -8 11 -34 -23 -27 -57 10 -87 -66 -43 -108 30 -27 62 -25 87 6 25
31 27 57 6 77 -23 24 8 30 33 6 12 -10 23 -15 26 -10 3 4 -3 16 -14 26 -11 10
-17 22 -14 26 3 5 2 9 -3 9 -4 0 -25 4 -45 9 -30 7 -46 5 -78 -11z"/>
<path d="M4425 2020 c-4 -6 -1 -17 5 -25 15 -18 -3 -47 -24 -39 -7 3 -19 -2
-26 -11 -7 -9 -28 -15 -51 -15 -22 0 -39 -4 -39 -8 0 -5 18 -23 41 -41 42 -34
42 -34 24 -98 -3 -10 1 -4 10 14 10 22 20 31 30 27 8 -4 12 -10 9 -15 -3 -5
-9 -7 -13 -5 -4 3 -8 -5 -8 -16 -2 -20 -1 -20 22 2 25 23 39 20 68 -15 5 -6 7
-3 3 8 -3 9 -1 17 5 17 6 0 7 5 3 11 -4 6 -9 7 -13 2 -3 -5 -14 -1 -23 9 -15
15 -15 18 -3 18 8 0 15 -5 15 -12 0 -6 3 -8 7 -5 5 6 8 19 12 62 1 6 6 3 11
-5 8 -12 17 -8 51 27 l42 41 -38 0 c-20 0 -42 5 -48 11 -6 6 -19 11 -28 11
-17 0 -34 26 -30 48 2 15 -5 16 -14 2z"/>
<path d="M3680 1717 c-67 -32 -150 -107 -150 -136 0 -8 10 -26 23 -40 l22 -25
-30 23 -29 22 -14 -38 c-20 -56 -9 -152 24 -213 l27 -49 49 40 c26 23 71 64
98 92 46 47 50 55 52 101 0 28 2 85 3 126 2 41 1 83 -2 93 -5 19 -35 21 -73 4z"/>
<path d="M3843 1723 c-8 -3 -13 -25 -13 -62 0 -32 -6 -63 -12 -70 -11 -11 -10
-12 0 -6 8 4 13 2 11 -6 -1 -8 -1 -43 0 -79 1 -62 4 -67 44 -110 54 -58 121
-110 141 -110 50 0 77 216 37 305 -11 25 -20 48 -20 51 0 6 -75 63 -109 82
-22 12 -56 15 -79 5z"/>
<path d="M3828 1325 c-8 -9 3 -179 12 -189 20 -21 120 37 120 71 0 15 -103
123 -118 123 -5 0 -11 -2 -14 -5z"/>
<path d="M3671 1258 c-34 -35 -61 -66 -61 -69 0 -11 42 -60 47 -55 3 3 18 -1
33 -9 47 -24 59 -5 62 99 2 62 -1 90 -9 93 -6 2 -39 -24 -72 -59z"/>
<path d="M2978 1375 c-6 -13 -19 -27 -29 -30 -9 -3 -23 -13 -31 -22 -9 -12 -9
-15 -1 -9 9 5 11 2 7 -8 -5 -12 -9 -13 -19 -3 -7 7 -11 15 -10 18 2 3 -14 6
-35 7 -45 3 -47 -15 -4 -35 23 -11 25 -10 20 5 -5 15 -5 15 6 1 7 -8 22 -21
33 -28 20 -12 20 -12 -1 -8 -18 4 -20 -1 -20 -39 1 -24 5 -44 9 -44 5 0 1 -7
-7 -16 -35 -35 -13 -33 31 3 76 61 76 61 55 72 -11 6 -22 8 -24 5 -3 -3 -8 2
-11 10 -10 26 53 -3 65 -30 6 -13 14 -21 19 -19 4 3 10 1 14 -5 3 -6 -3 -10
-15 -10 -19 0 -20 -2 -6 -15 17 -17 30 -20 21 -5 -3 6 -2 10 4 10 6 0 13 -11
17 -25 3 -14 10 -22 15 -19 5 3 2 20 -5 39 -20 48 -13 81 25 121 18 18 30 36
27 40 -4 3 -14 -3 -24 -14 -9 -11 -22 -19 -28 -18 -6 2 -7 1 -3 -2 5 -2 0 -14
-11 -26 -11 -11 -22 -30 -24 -41 -5 -19 -5 -19 -13 -1 -6 13 -3 23 8 31 10 7
17 15 17 17 0 13 -40 15 -57 3 -14 -10 -24 -10 -34 -3 -11 8 -11 9 3 4 10 -3
20 -1 23 4 4 6 -3 10 -14 10 -11 0 -22 4 -25 9 -4 5 3 7 14 4 16 -4 20 -1 18
18 -2 18 1 23 14 21 9 -1 20 3 24 9 5 8 2 10 -8 6 -12 -4 -14 -1 -11 14 8 27
-5 24 -19 -6z"/>
<path d="M3231 1381 c-11 -11 -22 -16 -26 -13 -4 4 -5 2 -3 -5 2 -6 -14 -31
-34 -56 -20 -24 -35 -50 -34 -58 9 -44 19 -68 27 -63 5 3 7 10 4 15 -3 5 1 6
9 3 8 -3 26 2 40 11 14 10 26 13 26 7 0 -6 -6 -12 -12 -14 -7 -3 -2 -7 10 -10
19 -5 22 -2 22 25 0 22 9 38 33 59 30 26 31 29 15 42 -21 15 -23 27 -5 22 6
-1 9 -1 5 1 -5 3 -8 12 -8 20 0 14 -3 13 -22 -3 -13 -10 -18 -12 -11 -4 8 11
8 18 -3 28 -11 10 -17 9 -33 -7z"/>
<path d="M3935 870 c-4 -6 -11 -7 -17 -4 -7 4 -8 2 -4 -5 4 -6 11 -9 15 -7 8
5 5 -78 -3 -100 -6 -16 30 -44 56 -44 9 0 23 9 31 20 8 11 17 17 21 13 4 -4 4
0 1 9 -4 10 0 27 8 38 l15 22 7 -21 c8 -27 -3 -83 -16 -75 -5 3 -9 -1 -9 -9 0
-14 20 -27 41 -27 6 0 7 9 4 20 -3 11 -2 20 4 20 5 0 11 -10 13 -22 2 -15 11
-24 26 -26 24 -4 29 7 10 26 -9 9 -8 16 5 30 21 23 22 62 2 62 -8 0 -15 3 -15
8 0 4 -10 8 -22 8 -13 1 -42 4 -66 8 -40 6 -42 5 -37 -16 7 -31 -20 -67 -37
-50 -10 10 -8 21 11 54 18 32 20 40 7 35 -25 -10 -44 2 -39 24 6 20 -2 26 -12
9z"/>
<path d="M2908 792 c-29 -3 -36 -22 -29 -79 4 -40 18 -43 27 -5 13 62 19 52
22 -41 2 -72 -1 -103 -12 -118 -8 -12 -16 -16 -20 -10 -13 20 -36 106 -36 133
0 51 -23 119 -39 116 -11 -2 -19 -35 -32 -121 -18 -128 -29 -158 -29 -84 0 25
-4 48 -9 51 -5 3 -7 32 -4 64 7 74 -11 97 -66 87 -44 -8 -47 -11 -31 -29 6 -9
14 -58 17 -111 5 -82 3 -98 -12 -115 -17 -18 -17 -20 -1 -20 9 0 19 -6 22 -14
3 -8 13 -12 25 -9 10 3 16 9 13 14 -3 5 4 9 15 9 12 0 21 5 21 12 0 8 3 9 11
1 13 -13 56 -5 63 14 3 8 1 11 -4 8 -6 -3 -10 3 -10 14 0 12 7 21 15 21 10 0
15 -10 15 -30 0 -31 33 -60 45 -40 3 5 26 10 50 10 35 0 47 5 56 21 8 15 8 19
0 15 -6 -4 -13 -1 -16 6 -8 21 -11 198 -3 198 4 0 8 -14 10 -32 5 -54 28 -46
28 10 l0 50 -37 3 c-21 2 -50 3 -65 1z"/>
<path d="M3027 793 c-11 -10 -8 -93 2 -93 5 0 14 12 20 28 8 21 10 6 5 -68 -3
-52 -10 -102 -15 -112 -12 -23 -11 -28 6 -28 8 0 15 -4 15 -10 0 -5 5 -10 11
-10 5 0 8 4 5 9 -3 5 4 11 16 15 18 4 20 8 10 18 -15 15 -17 212 -2 203 6 -3
10 -18 10 -33 0 -18 3 -23 11 -15 5 5 9 30 7 54 l-3 44 -46 3 c-25 1 -49 -1
-52 -5z"/>
<path d="M3159 798 c0 -2 -2 -56 -4 -121 -2 -66 -9 -125 -15 -132 -7 -9 -6
-16 3 -24 8 -6 17 -8 20 -4 4 3 13 0 21 -6 8 -7 17 -8 20 -3 3 5 19 9 36 10
17 0 28 -3 25 -8 -4 -6 39 5 63 16 1 1 7 15 12 33 6 22 5 35 -3 42 -7 7 -11
30 -8 55 3 41 -11 61 -22 32 -3 -7 -5 -4 -6 7 0 11 4 29 9 40 8 21 8 22 25
-32 9 -26 23 -3 27 42 l3 40 -52 2 c-52 3 -52 3 -47 -25 7 -39 -11 -221 -25
-235 -8 -8 -10 3 -8 43 2 58 -16 80 -26 30 -4 -16 -10 -30 -15 -30 -11 0 -5
146 8 184 5 15 7 32 4 37 -4 8 -43 13 -45 7z"/>
<path d="M2242 718 c-30 -7 -46 -16 -51 -30 l-8 -22 -6 23 c-5 21 -5 22 -39 3
-30 -17 -33 -23 -33 -65 -1 -26 2 -41 7 -34 5 8 8 7 8 -5 0 -20 -16 -32 -25
-18 -8 12 -25 13 -25 1 0 -12 39 -21 46 -10 3 5 9 9 13 9 12 0 61 -77 61 -95
0 -24 -18 -17 -37 15 -9 17 -21 30 -25 30 -10 0 -10 4 7 -54 13 -43 13 -47 0
-36 -9 7 -15 8 -15 2 0 -5 -8 -9 -17 -8 -20 1 -31 -40 -15 -56 18 -18 72 13
72 40 0 29 26 39 49 18 10 -9 21 -16 25 -16 5 0 -2 9 -15 20 -13 10 -19 19
-12 20 24 0 3 67 -38 120 -31 39 -48 90 -30 90 6 0 19 -13 30 -30 18 -30 34
-31 25 -2 -5 14 -4 14 6 -1 16 -24 28 -13 22 19 -3 19 -1 25 7 20 6 -4 11 -20
11 -35 0 -15 7 -50 15 -77 8 -27 12 -63 9 -81 -7 -37 -5 -38 31 -21 27 12 30
19 16 33 -6 6 -14 28 -20 50 -5 22 -14 57 -19 78 -10 37 0 53 12 20 5 -12 10
-13 17 -6 11 11 3 90 -9 96 -4 2 -26 0 -50 -5z"/>
<path d="M3722 712 c-14 -10 -27 -51 -43 -137 -6 -33 -15 -66 -21 -72 -7 -9
-7 -13 0 -13 6 0 9 -6 6 -13 -3 -9 6 -14 28 -15 29 -2 36 3 61 43 15 25 27 58
27 74 0 15 5 42 11 60 18 53 -26 100 -69 73z"/>
<path d="M3654 5761 c-17 -10 -41 -22 -55 -26 -36 -11 -59 -35 -59 -62 0 -28
20 -30 51 -4 22 18 22 20 6 26 -9 4 -24 2 -32 -5 -8 -7 -15 -10 -15 -7 0 15
62 48 79 42 18 -6 18 -7 3 -45 -10 -22 -25 -43 -34 -46 -10 -3 -18 -10 -18
-15 0 -6 -4 -7 -10 -4 -14 9 -52 -14 -44 -26 3 -6 17 -9 30 -6 13 2 24 -1 24
-6 0 -27 69 59 80 99 14 50 22 50 25 2 1 -18 2 -48 3 -65 1 -18 7 -33 12 -33
11 0 9 78 -3 97 -4 6 -3 14 3 18 5 3 10 20 10 36 0 17 -4 28 -10 24 -6 -3 -7
1 -4 9 8 21 -4 20 -42 -3z"/>
</g>
</svg>
